<svg width="324" height="74" viewBox="0 0 324 74" fill="none" xmlns="http://www.w3.org/2000/svg">
<g clip-path="url(#clip0_447_151)">
<path d="M52.2241 37.0311V38.8455C51.893 42.4702 50.2686 45.8546 47.6479 48.3804C45.0272 50.9061 41.5852 52.4045 37.9509 52.6017H21.9624V52.225L37.156 37.0311H52.2241Z" fill="#374151"/>
<path d="M37.156 22.3106V37.0311L21.9624 52.225V37.0311H21.98C22.089 33.2477 23.6097 29.642 26.2429 26.9233C28.8762 24.2045 32.4313 22.5693 36.2093 22.3395C36.5144 22.3194 36.8208 22.3106 37.1309 22.3106H37.156Z" fill="#1F2937"/>
<path d="M67.1039 37.4706C67.1069 45.4201 63.9547 53.0458 58.3395 58.6728C52.7244 64.2998 45.1055 67.4681 37.1561 67.4817H37.0933C33.1518 67.4834 29.2486 66.7082 25.6068 65.2006C21.965 63.693 18.656 61.4825 15.869 58.6954C13.0819 55.9082 10.8714 52.5992 9.36382 48.9573C7.85624 45.3155 7.08112 41.4122 7.08277 37.4706C7.08277 37.3237 7.08277 37.1768 7.08277 37.0311C7.19498 29.1471 10.4067 21.6242 16.023 16.09C21.6393 10.5559 29.2086 7.45544 37.0933 7.45954H37.1561C42.4525 7.46213 47.6529 8.8732 52.2242 11.5481V22.3395H38.0527C37.7563 22.3203 37.4575 22.3106 37.1561 22.3106H37.131C36.8209 22.3106 36.5145 22.3194 36.2093 22.3395C32.4314 22.5694 28.8762 24.2045 26.243 26.9233C23.6098 29.6421 22.0891 33.2477 21.9801 37.0311H21.9625V52.6017H37.951C41.5853 52.4046 45.0273 50.9062 47.648 48.3804C50.2687 45.8547 51.893 42.4703 52.2242 38.8456V22.3395H63.0154C65.6259 26.8005 67.0333 31.8629 67.1001 37.0311C67.1027 37.1768 67.1039 37.3237 67.1039 37.4706Z" fill="#6B7280"/>
<path d="M52.2869 22.2767H37.0933V37.0939H52.2869V22.2767Z" fill="#4B5563"/>
<path d="M73.1939 37.0939C73.22 46.2864 69.7137 55.1376 63.3997 61.8185C59.8228 65.6117 55.4695 68.5882 50.6369 70.5449C45.8044 72.5016 40.6065 73.3923 35.3982 73.1561C28.4102 72.8277 21.6682 70.4758 15.9919 66.3867C10.3157 62.2975 5.94989 56.6471 3.42533 50.1227C0.900757 43.5983 0.326227 36.4809 1.7716 29.636C3.21697 22.791 6.61997 16.5136 11.5668 11.5668C17.9221 5.21097 26.4197 1.45429 35.3978 1.03141C44.376 0.608523 53.189 3.54985 60.1136 9.28023C60.8449 8.75754 61.7415 8.51901 62.6358 8.60919C63.5301 8.69938 64.361 9.11212 64.9732 9.77028C65.5854 10.4284 65.937 11.287 65.9624 12.1855C65.9877 13.0841 65.685 13.9611 65.1109 14.6527C64.5367 15.3443 63.7304 15.8032 62.8426 15.9436C61.9548 16.0841 61.0462 15.8965 60.2866 15.4158C59.527 14.9352 58.9685 14.1944 58.7152 13.3319C58.462 12.4695 58.5315 11.5443 58.9107 10.7293C51.1946 4.32526 41.0801 1.59036 30.7384 3.44627C26.1062 4.27745 21.7072 6.09585 17.8401 8.77795C6.6433 16.5507 1.1535 29.5145 3.35595 42.924C4.18037 47.9391 6.15054 52.6964 9.11321 56.8258C17.0365 67.8659 30.0829 73.1561 43.5011 70.7327C48.1324 69.895 52.529 68.0697 56.3918 65.3809C65.9311 58.7383 71.3104 48.3323 71.3104 37.0939C71.3218 32.4345 70.3733 27.8228 68.5241 23.5462C68.4242 23.3172 68.4193 23.0579 68.5106 22.8254C68.6018 22.5929 68.7817 22.4061 69.0107 22.3062C69.2396 22.2063 69.4989 22.2014 69.7314 22.2927C69.964 22.3839 70.1507 22.5638 70.2506 22.7928C72.2038 27.307 73.2057 32.1752 73.1939 37.0939Z" fill="#1F2937"/>
</g>
<path d="M99.0197 57.1035C97.1314 57.1035 95.3726 56.6962 93.7435 55.8816C92.1514 55.03 90.9295 54.0118 90.0779 52.827V56.5481H83.9686V14.8936H90.0779V32.4996C90.9295 31.3147 92.1514 30.315 93.7435 29.5004C95.3726 28.6488 97.1314 28.223 99.0197 28.223C102.796 28.223 105.962 29.63 108.517 32.444C111.109 35.258 112.405 38.6644 112.405 42.6633C112.405 46.6621 111.109 50.0685 108.517 52.8825C105.962 55.6965 102.796 57.1035 99.0197 57.1035ZM97.9089 51.5496C100.316 51.5496 102.297 50.6979 103.852 48.9947C105.407 47.2915 106.184 45.181 106.184 42.6633C106.184 40.1455 105.407 38.035 103.852 36.3318C102.297 34.6286 100.316 33.777 97.9089 33.777C95.4652 33.777 93.4658 34.6286 91.9107 36.3318C90.3556 38.035 89.578 40.1455 89.578 42.6633C89.578 45.181 90.3556 47.2915 91.9107 48.9947C93.4658 50.6979 95.4652 51.5496 97.9089 51.5496ZM130.901 57.1035C126.754 57.1035 123.347 55.752 120.681 53.0491C118.015 50.3092 116.683 46.8472 116.683 42.6633C116.683 38.4793 117.997 35.0359 120.626 32.3329C123.255 29.593 126.698 28.223 130.956 28.223C135.251 28.223 138.713 29.7226 141.342 32.7217C143.971 35.6838 145.137 39.4975 144.841 44.1628H122.736C122.81 46.3103 123.625 48.1061 125.18 49.5501C126.735 50.9942 128.716 51.7162 131.123 51.7162C134.529 51.7162 136.862 50.4203 138.121 47.8284H144.508C143.656 50.5313 142.027 52.7529 139.62 54.4931C137.214 56.2334 134.307 57.1035 130.901 57.1035ZM130.79 33.3326C128.79 33.3326 127.068 33.9066 125.624 35.0544C124.217 36.1652 123.31 37.7573 122.903 39.8307H138.287C137.843 37.6832 136.936 36.0726 135.566 34.9988C134.196 33.888 132.604 33.3326 130.79 33.3326ZM151.115 56.5481V28.7784H157.224V33.7214C157.742 32.1663 158.687 30.9074 160.057 29.9447C161.464 28.9821 162.963 28.5007 164.555 28.5007C165.518 28.5007 166.314 28.5748 166.943 28.7229V34.9988C166.055 34.6656 165.037 34.499 163.889 34.499C162.038 34.499 160.464 35.258 159.168 36.7761C157.872 38.2571 157.224 40.3306 157.224 42.9965V56.5481H151.115ZM172.213 56.5481V28.7784H178.323V33.7214C178.841 32.1663 179.785 30.9074 181.155 29.9447C182.562 28.9821 184.062 28.5007 185.654 28.5007C186.616 28.5007 187.412 28.5748 188.042 28.7229V34.9988C187.153 34.6656 186.135 34.499 184.987 34.499C183.136 34.499 181.562 35.258 180.266 36.7761C178.971 38.2571 178.323 40.3306 178.323 42.9965V56.5481H172.213ZM202.198 68.1558H195.478L201.42 55.0485L189.479 28.7784H196.2L204.697 48.4393L213.25 28.7784H220.026L202.198 68.1558ZM224.281 56.5481V14.8936H230.391V56.5481H224.281ZM250.874 57.1035C246.727 57.1035 243.321 55.752 240.655 53.0491C237.989 50.3092 236.656 46.8472 236.656 42.6633C236.656 38.4793 237.971 35.0359 240.6 32.3329C243.228 29.593 246.672 28.223 250.93 28.223C255.225 28.223 258.687 29.7226 261.316 32.7217C263.945 35.6838 265.111 39.4975 264.815 44.1628H242.71C242.784 46.3103 243.599 48.1061 245.154 49.5501C246.709 50.9942 248.69 51.7162 251.096 51.7162C254.503 51.7162 256.836 50.4203 258.094 47.8284H264.481C263.63 50.5313 262.001 52.7529 259.594 54.4931C257.187 56.2334 254.281 57.1035 250.874 57.1035ZM250.763 33.3326C248.764 33.3326 247.042 33.9066 245.598 35.0544C244.191 36.1652 243.284 37.7573 242.877 39.8307H258.261C257.817 37.6832 256.91 36.0726 255.54 34.9988C254.17 33.888 252.578 33.3326 250.763 33.3326ZM282.474 57.1035C278.697 57.1035 275.513 55.6965 272.921 52.8825C270.366 50.0685 269.089 46.6621 269.089 42.6633C269.089 38.6644 270.366 35.258 272.921 32.444C275.513 29.63 278.697 28.223 282.474 28.223C284.362 28.223 286.103 28.6488 287.695 29.5004C289.287 30.315 290.509 31.3147 291.36 32.4996V28.7784H297.47V56.5481H291.36V52.827C290.509 54.0118 289.287 55.03 287.695 55.8816C286.103 56.6962 284.362 57.1035 282.474 57.1035ZM277.642 48.9947C279.197 50.6979 281.178 51.5496 283.585 51.5496C285.992 51.5496 287.972 50.6979 289.528 48.9947C291.083 47.2915 291.86 45.181 291.86 42.6633C291.86 40.1455 291.083 38.035 289.528 36.3318C287.972 34.6286 285.992 33.777 283.585 33.777C281.178 33.777 279.197 34.6286 277.642 36.3318C276.087 38.035 275.309 40.1455 275.309 42.6633C275.309 45.181 276.087 47.2915 277.642 48.9947ZM308.357 56.5481V34.2213H302.581V28.7784H308.357V24.1131C308.357 21.114 309.245 18.7813 311.023 17.1152C312.8 15.4119 315.077 14.5603 317.854 14.5603C319.557 14.5603 321.075 14.7825 322.408 15.2268V20.6697C321.557 20.2994 320.464 20.1143 319.131 20.1143C317.502 20.1143 316.317 20.4845 315.577 21.2251C314.836 21.9286 314.466 23.1319 314.466 24.8351V28.7784H322.408V34.2213H314.466V56.5481H308.357Z" fill="#0F172A"/>
<defs>
<clipPath id="clip0_447_151">
<rect width="72.2012" height="72.2012" fill="white" transform="translate(0.992676 0.992676)"/>
</clipPath>
</defs>
</svg>
