<svg width="74" height="74" viewBox="0 0 74 74" fill="none" xmlns="http://www.w3.org/2000/svg">
<g clip-path="url(#clip0_447_152)">
<path d="M52.2241 37.0311V38.8455C51.893 42.4702 50.2686 45.8546 47.6479 48.3804C45.0272 50.9061 41.5852 52.4045 37.9509 52.6017H21.9624V52.225L37.156 37.0311H52.2241Z" fill="#374151"/>
<path d="M37.156 22.3106V37.0311L21.9624 52.225V37.0311H21.98C22.089 33.2477 23.6097 29.642 26.2429 26.9233C28.8762 24.2045 32.4313 22.5693 36.2093 22.3395C36.5144 22.3194 36.8208 22.3106 37.1309 22.3106H37.156Z" fill="#1F2937"/>
<path d="M67.1039 37.4706C67.1069 45.4201 63.9547 53.0458 58.3395 58.6728C52.7244 64.2998 45.1055 67.4681 37.1561 67.4817H37.0933C33.1518 67.4834 29.2486 66.7082 25.6068 65.2006C21.965 63.693 18.656 61.4825 15.869 58.6954C13.0819 55.9082 10.8714 52.5992 9.36382 48.9573C7.85624 45.3155 7.08112 41.4122 7.08277 37.4706C7.08277 37.3237 7.08277 37.1768 7.08277 37.0311C7.19498 29.1471 10.4067 21.6242 16.023 16.09C21.6393 10.5559 29.2086 7.45544 37.0933 7.45954H37.1561C42.4525 7.46213 47.6529 8.8732 52.2242 11.5481V22.3395H38.0527C37.7563 22.3203 37.4575 22.3106 37.1561 22.3106H37.131C36.8209 22.3106 36.5145 22.3194 36.2093 22.3395C32.4314 22.5694 28.8762 24.2045 26.243 26.9233C23.6098 29.6421 22.0891 33.2477 21.9801 37.0311H21.9625V52.6017H37.951C41.5853 52.4046 45.0273 50.9062 47.648 48.3804C50.2687 45.8547 51.893 42.4703 52.2242 38.8456V22.3395H63.0154C65.6259 26.8005 67.0333 31.8629 67.1001 37.0311C67.1027 37.1768 67.1039 37.3237 67.1039 37.4706Z" fill="#6B7280"/>
<path d="M52.2869 22.2767H37.0933V37.0939H52.2869V22.2767Z" fill="#4B5563"/>
<path d="M73.1939 37.0939C73.22 46.2864 69.7137 55.1376 63.3997 61.8185C59.8228 65.6117 55.4695 68.5882 50.6369 70.5449C45.8044 72.5016 40.6065 73.3923 35.3982 73.1561C28.4102 72.8277 21.6682 70.4758 15.9919 66.3867C10.3157 62.2975 5.94989 56.6471 3.42533 50.1227C0.900757 43.5983 0.326227 36.4809 1.7716 29.636C3.21697 22.791 6.61997 16.5136 11.5668 11.5668C17.9221 5.21097 26.4197 1.45429 35.3978 1.03141C44.376 0.608523 53.189 3.54985 60.1136 9.28023C60.8449 8.75754 61.7415 8.51901 62.6358 8.60919C63.5301 8.69938 64.361 9.11212 64.9732 9.77028C65.5854 10.4284 65.937 11.287 65.9624 12.1855C65.9877 13.0841 65.685 13.9611 65.1109 14.6527C64.5367 15.3443 63.7304 15.8032 62.8426 15.9436C61.9548 16.0841 61.0462 15.8965 60.2866 15.4158C59.527 14.9352 58.9685 14.1944 58.7152 13.3319C58.462 12.4695 58.5315 11.5443 58.9107 10.7293C51.1946 4.32526 41.0801 1.59036 30.7384 3.44627C26.1062 4.27745 21.7072 6.09585 17.8401 8.77795C6.6433 16.5507 1.1535 29.5145 3.35595 42.924C4.18037 47.9391 6.15054 52.6964 9.11321 56.8258C17.0365 67.8659 30.0829 73.1561 43.5011 70.7327C48.1324 69.895 52.529 68.0697 56.3918 65.3809C65.9311 58.7383 71.3104 48.3323 71.3104 37.0939C71.3218 32.4345 70.3733 27.8228 68.5241 23.5462C68.4242 23.3172 68.4193 23.0579 68.5106 22.8254C68.6018 22.5929 68.7817 22.4061 69.0107 22.3062C69.2396 22.2063 69.4989 22.2014 69.7314 22.2927C69.964 22.3839 70.1507 22.5638 70.2506 22.7928C72.2038 27.307 73.2057 32.1752 73.1939 37.0939Z" fill="#1F2937"/>
</g>
<defs>
<clipPath id="clip0_447_152">
<rect width="72.2012" height="72.2012" fill="white" transform="translate(0.992676 0.992676)"/>
</clipPath>
</defs>
</svg>
