<svg width="1322" height="568" viewBox="0 0 1322 568" fill="none" xmlns="http://www.w3.org/2000/svg">
<mask id="mask0_1_1109" style="mask-type:alpha" maskUnits="userSpaceOnUse" x="0" y="0" width="1322" height="568">
<rect width="1322" height="568" rx="20" fill="#1F2937"/>
</mask>
<g mask="url(#mask0_1_1109)">
<rect width="1322" height="568" rx="20" fill="url(#paint0_linear_1_1109)"/>
<path d="M288.125 312V216.15H309.59V253.68H348.2V216.15H369.665V312H348.2V274.065H309.59V312H288.125ZM413.662 284.325C419.152 289.995 425.767 292.83 433.507 292.83C441.247 292.83 447.817 289.995 453.217 284.325C458.617 278.655 461.317 271.905 461.317 264.075C461.317 256.245 458.617 249.495 453.217 243.825C447.817 238.155 441.247 235.32 433.507 235.32C425.767 235.32 419.152 238.155 413.662 243.825C408.262 249.495 405.562 256.245 405.562 264.075C405.562 271.905 408.262 278.655 413.662 284.325ZM468.472 299.04C458.842 308.76 447.187 313.62 433.507 313.62C419.827 313.62 408.127 308.805 398.407 299.175C388.777 289.455 383.962 277.755 383.962 264.075C383.962 250.395 388.777 238.74 398.407 229.11C408.127 219.39 419.827 214.53 433.507 214.53C447.187 214.53 458.842 219.39 468.472 229.11C478.192 238.83 483.052 250.485 483.052 264.075C483.052 277.665 478.192 289.32 468.472 299.04ZM571.602 312L551.217 265.155L530.832 312H510.447L488.307 216.15H511.257L524.352 276.9L551.217 214.53L578.217 276.9L591.312 216.15H614.262L591.987 312H571.602Z" fill="white"/>
<path d="M645.75 249.25C643.45 249.25 641.6 248.6 640.2 247.3C638.8 246 638.1 244.1 638.1 241.6V227.95H632.8V224H638.1V217.05H642.4V224H649.6V227.95H642.4V241.05C642.4 242.617 642.733 243.717 643.4 244.35C644.067 244.983 645.117 245.3 646.55 245.3C647.817 245.3 648.833 245.133 649.6 244.8V248.65C648.4 249.05 647.117 249.25 645.75 249.25ZM665.651 249.5C661.885 249.5 658.751 248.25 656.251 245.75C653.785 243.217 652.551 240.133 652.551 236.5C652.551 232.867 653.785 229.8 656.251 227.3C658.751 224.767 661.885 223.5 665.651 223.5C669.385 223.5 672.485 224.767 674.951 227.3C677.451 229.8 678.701 232.867 678.701 236.5C678.701 240.133 677.451 243.217 674.951 245.75C672.485 248.25 669.385 249.5 665.651 249.5ZM659.351 242.9C660.985 244.633 663.085 245.5 665.651 245.5C668.218 245.5 670.301 244.633 671.901 242.9C673.501 241.167 674.301 239.033 674.301 236.5C674.301 233.967 673.501 231.833 671.901 230.1C670.301 228.367 668.218 227.5 665.651 227.5C663.085 227.5 660.985 228.367 659.351 230.1C657.751 231.833 656.951 233.967 656.951 236.5C656.951 239.033 657.751 241.167 659.351 242.9ZM709.634 249.5C707.801 249.5 706.084 249.1 704.484 248.3C702.917 247.467 701.701 246.417 700.834 245.15V249H696.534V211.5H700.834V227.85C701.701 226.583 702.917 225.55 704.484 224.75C706.084 223.917 707.801 223.5 709.634 223.5C713.101 223.5 716.001 224.767 718.334 227.3C720.701 229.833 721.884 232.9 721.884 236.5C721.884 240.1 720.701 243.167 718.334 245.7C716.001 248.233 713.101 249.5 709.634 249.5ZM702.884 242.95C704.484 244.683 706.517 245.55 708.984 245.55C711.451 245.55 713.484 244.683 715.084 242.95C716.684 241.217 717.484 239.067 717.484 236.5C717.484 233.933 716.684 231.783 715.084 230.05C713.484 228.317 711.451 227.45 708.984 227.45C706.517 227.45 704.484 228.317 702.884 230.05C701.284 231.783 700.484 233.933 700.484 236.5C700.484 239.067 701.284 241.217 702.884 242.95ZM738.478 249.5C734.845 249.5 731.828 248.267 729.428 245.8C727.061 243.333 725.878 240.233 725.878 236.5C725.878 232.733 727.028 229.633 729.328 227.2C731.661 224.733 734.745 223.5 738.578 223.5C742.445 223.5 745.478 224.867 747.678 227.6C749.878 230.333 750.845 233.683 750.578 237.65H730.228C730.295 239.917 731.128 241.817 732.728 243.35C734.328 244.85 736.261 245.6 738.528 245.6C741.928 245.6 744.345 244.2 745.778 241.4H750.178C749.545 243.733 748.195 245.667 746.128 247.2C744.061 248.733 741.511 249.5 738.478 249.5ZM743.378 229.1C742.011 227.9 740.361 227.3 738.428 227.3C736.495 227.3 734.761 227.883 733.228 229.05C731.728 230.217 730.795 231.95 730.428 234.25H746.028C745.628 231.983 744.745 230.267 743.378 229.1ZM767.683 249.5C763.917 249.5 760.8 248.25 758.333 245.75C755.867 243.217 754.633 240.133 754.633 236.5C754.633 232.867 755.867 229.8 758.333 227.3C760.8 224.767 763.917 223.5 767.683 223.5C770.783 223.5 773.467 224.367 775.733 226.1C778 227.8 779.517 230.033 780.283 232.8H775.683C775.083 231.167 774.083 229.867 772.683 228.9C771.283 227.933 769.617 227.45 767.683 227.45C765.117 227.45 763.017 228.317 761.383 230.05C759.783 231.783 758.983 233.933 758.983 236.5C758.983 239.067 759.783 241.217 761.383 242.95C763.017 244.683 765.117 245.55 767.683 245.55C769.617 245.55 771.283 245.067 772.683 244.1C774.083 243.133 775.083 241.833 775.683 240.2H780.283C779.55 242.967 778.05 245.217 775.783 246.95C773.517 248.65 770.817 249.5 767.683 249.5ZM796.878 249.5C793.111 249.5 789.978 248.25 787.478 245.75C785.011 243.217 783.778 240.133 783.778 236.5C783.778 232.867 785.011 229.8 787.478 227.3C789.978 224.767 793.111 223.5 796.878 223.5C800.611 223.5 803.711 224.767 806.178 227.3C808.678 229.8 809.928 232.867 809.928 236.5C809.928 240.133 808.678 243.217 806.178 245.75C803.711 248.25 800.611 249.5 796.878 249.5ZM790.578 242.9C792.211 244.633 794.311 245.5 796.878 245.5C799.444 245.5 801.528 244.633 803.128 242.9C804.728 241.167 805.528 239.033 805.528 236.5C805.528 233.967 804.728 231.833 803.128 230.1C801.528 228.367 799.444 227.5 796.878 227.5C794.311 227.5 792.211 228.367 790.578 230.1C788.978 231.833 788.178 233.967 788.178 236.5C788.178 239.033 788.978 241.167 790.578 242.9ZM848.1 249V234.3C848.1 232.233 847.667 230.583 846.8 229.35C845.967 228.083 844.75 227.45 843.15 227.45C841.15 227.45 839.517 228.233 838.25 229.8C837.017 231.367 836.367 233.5 836.3 236.2V249H832V234.3C832 232.2 831.567 230.533 830.7 229.3C829.867 228.067 828.667 227.45 827.1 227.45C825.033 227.45 823.367 228.283 822.1 229.95C820.833 231.583 820.2 233.8 820.2 236.6V249H815.9V224H820.2V227.85C821.8 224.95 824.317 223.5 827.75 223.5C831.55 223.5 834.117 225.283 835.45 228.85C836.117 227.217 837.183 225.917 838.65 224.95C840.117 223.983 841.783 223.5 843.65 223.5C846.35 223.5 848.483 224.417 850.05 226.25C851.617 228.083 852.4 230.55 852.4 233.65V249H848.1ZM870.588 249.5C866.955 249.5 863.938 248.267 861.538 245.8C859.172 243.333 857.988 240.233 857.988 236.5C857.988 232.733 859.138 229.633 861.438 227.2C863.772 224.733 866.855 223.5 870.688 223.5C874.555 223.5 877.588 224.867 879.788 227.6C881.988 230.333 882.955 233.683 882.688 237.65H862.338C862.405 239.917 863.238 241.817 864.838 243.35C866.438 244.85 868.372 245.6 870.638 245.6C874.038 245.6 876.455 244.2 877.888 241.4H882.288C881.655 243.733 880.305 245.667 878.238 247.2C876.172 248.733 873.622 249.5 870.588 249.5ZM875.488 229.1C874.122 227.9 872.472 227.3 870.538 227.3C868.605 227.3 866.872 227.883 865.338 229.05C863.838 230.217 862.905 231.95 862.538 234.25H878.138C877.738 231.983 876.855 230.267 875.488 229.1ZM636.7 312V276.5H648.8C652.067 276.5 654.65 277.4 656.55 279.2C658.45 280.967 659.4 283.333 659.4 286.3C659.4 288.9 658.617 291.033 657.05 292.7C655.517 294.367 653.367 295.4 650.6 295.8L664.3 312H658.45L644.8 295.85H641.35V312H636.7ZM641.35 291.7H648.25C650.317 291.7 651.917 291.25 653.05 290.35C654.183 289.417 654.75 288.067 654.75 286.3C654.75 284.533 654.183 283.183 653.05 282.25C651.917 281.283 650.317 280.8 648.25 280.8H641.35V291.7ZM677.506 312.5C673.873 312.5 670.856 311.267 668.456 308.8C666.089 306.333 664.906 303.233 664.906 299.5C664.906 295.733 666.056 292.633 668.356 290.2C670.689 287.733 673.773 286.5 677.606 286.5C681.473 286.5 684.506 287.867 686.706 290.6C688.906 293.333 689.873 296.683 689.606 300.65H669.256C669.323 302.917 670.156 304.817 671.756 306.35C673.356 307.85 675.289 308.6 677.556 308.6C680.956 308.6 683.373 307.2 684.806 304.4H689.206C688.573 306.733 687.223 308.667 685.156 310.2C683.089 311.733 680.539 312.5 677.506 312.5ZM682.406 292.1C681.039 290.9 679.389 290.3 677.456 290.3C675.523 290.3 673.789 290.883 672.256 292.05C670.756 293.217 669.823 294.95 669.456 297.25H685.056C684.656 294.983 683.773 293.267 682.406 292.1ZM705.911 312.5C702.444 312.5 699.528 311.233 697.161 308.7C694.828 306.167 693.661 303.1 693.661 299.5C693.661 295.9 694.828 292.833 697.161 290.3C699.528 287.767 702.444 286.5 705.911 286.5C707.744 286.5 709.444 286.917 711.011 287.75C712.611 288.55 713.844 289.583 714.711 290.85V287H719.011V312H714.711V308.15C713.844 309.417 712.611 310.467 711.011 311.3C709.444 312.1 707.744 312.5 705.911 312.5ZM706.561 308.55C709.028 308.55 711.061 307.683 712.661 305.95C714.261 304.217 715.061 302.067 715.061 299.5C715.061 296.933 714.261 294.783 712.661 293.05C711.061 291.317 709.028 290.45 706.561 290.45C704.061 290.45 702.011 291.317 700.411 293.05C698.811 294.783 698.011 296.933 698.011 299.5C698.011 302.067 698.811 304.217 700.411 305.95C702.011 307.683 704.061 308.55 706.561 308.55ZM738.005 312.5C734.238 312.5 731.122 311.25 728.655 308.75C726.188 306.217 724.955 303.133 724.955 299.5C724.955 295.867 726.188 292.8 728.655 290.3C731.122 287.767 734.238 286.5 738.005 286.5C741.105 286.5 743.788 287.367 746.055 289.1C748.322 290.8 749.838 293.033 750.605 295.8H746.005C745.405 294.167 744.405 292.867 743.005 291.9C741.605 290.933 739.938 290.45 738.005 290.45C735.438 290.45 733.338 291.317 731.705 293.05C730.105 294.783 729.305 296.933 729.305 299.5C729.305 302.067 730.105 304.217 731.705 305.95C733.338 307.683 735.438 308.55 738.005 308.55C739.938 308.55 741.605 308.067 743.005 307.1C744.405 306.133 745.405 304.833 746.005 303.2H750.605C749.872 305.967 748.372 308.217 746.105 309.95C743.838 311.65 741.138 312.5 738.005 312.5ZM765.555 312.25C763.255 312.25 761.405 311.6 760.005 310.3C758.605 309 757.905 307.1 757.905 304.6V290.95H752.605V287H757.905V280.05H762.205V287H769.405V290.95H762.205V304.05C762.205 305.617 762.539 306.717 763.205 307.35C763.872 307.983 764.922 308.3 766.355 308.3C767.622 308.3 768.639 308.133 769.405 307.8V311.65C768.205 312.05 766.922 312.25 765.555 312.25ZM796.859 312.5C793.392 312.5 790.476 311.233 788.109 308.7C785.776 306.167 784.609 303.1 784.609 299.5C784.609 295.9 785.776 292.833 788.109 290.3C790.476 287.767 793.392 286.5 796.859 286.5C798.692 286.5 800.392 286.917 801.959 287.75C803.559 288.55 804.792 289.583 805.659 290.85V274.5H809.959V312H805.659V308.15C804.792 309.417 803.559 310.467 801.959 311.3C800.392 312.1 798.692 312.5 796.859 312.5ZM797.509 308.55C799.976 308.55 802.009 307.683 803.609 305.95C805.209 304.217 806.009 302.067 806.009 299.5C806.009 296.933 805.209 294.783 803.609 293.05C802.009 291.317 799.976 290.45 797.509 290.45C795.009 290.45 792.959 291.317 791.359 293.05C789.759 294.783 788.959 296.933 788.959 299.5C788.959 302.067 789.759 304.217 791.359 305.95C792.959 307.683 795.009 308.55 797.509 308.55ZM828.503 312.5C824.87 312.5 821.853 311.267 819.453 308.8C817.086 306.333 815.903 303.233 815.903 299.5C815.903 295.733 817.053 292.633 819.353 290.2C821.686 287.733 824.77 286.5 828.603 286.5C832.47 286.5 835.503 287.867 837.703 290.6C839.903 293.333 840.87 296.683 840.603 300.65H820.253C820.32 302.917 821.153 304.817 822.753 306.35C824.353 307.85 826.286 308.6 828.553 308.6C831.953 308.6 834.37 307.2 835.803 304.4H840.203C839.57 306.733 838.22 308.667 836.153 310.2C834.086 311.733 831.536 312.5 828.503 312.5ZM833.403 292.1C832.036 290.9 830.386 290.3 828.453 290.3C826.52 290.3 824.786 290.883 823.253 292.05C821.753 293.217 820.82 294.95 820.453 297.25H836.053C835.653 294.983 834.77 293.267 833.403 292.1ZM853.969 312L842.419 287H847.219L855.769 305.95L864.319 287H869.119L857.569 312H853.969ZM883.377 312.5C879.743 312.5 876.727 311.267 874.327 308.8C871.96 306.333 870.777 303.233 870.777 299.5C870.777 295.733 871.927 292.633 874.227 290.2C876.56 287.733 879.643 286.5 883.477 286.5C887.343 286.5 890.377 287.867 892.577 290.6C894.777 293.333 895.743 296.683 895.477 300.65H875.127C875.193 302.917 876.027 304.817 877.627 306.35C879.227 307.85 881.16 308.6 883.427 308.6C886.827 308.6 889.243 307.2 890.677 304.4H895.077C894.443 306.733 893.093 308.667 891.027 310.2C888.96 311.733 886.41 312.5 883.377 312.5ZM888.277 292.1C886.91 290.9 885.26 290.3 883.327 290.3C881.393 290.3 879.66 290.883 878.127 292.05C876.627 293.217 875.693 294.95 875.327 297.25H890.927C890.527 294.983 889.643 293.267 888.277 292.1ZM901.482 312V274.5H905.782V312H901.482ZM924.833 312.5C921.066 312.5 917.933 311.25 915.433 308.75C912.966 306.217 911.733 303.133 911.733 299.5C911.733 295.867 912.966 292.8 915.433 290.3C917.933 287.767 921.066 286.5 924.833 286.5C928.566 286.5 931.666 287.767 934.133 290.3C936.633 292.8 937.883 295.867 937.883 299.5C937.883 303.133 936.633 306.217 934.133 308.75C931.666 311.25 928.566 312.5 924.833 312.5ZM918.533 305.9C920.166 307.633 922.266 308.5 924.833 308.5C927.399 308.5 929.483 307.633 931.083 305.9C932.683 304.167 933.483 302.033 933.483 299.5C933.483 296.967 932.683 294.833 931.083 293.1C929.483 291.367 927.399 290.5 924.833 290.5C922.266 290.5 920.166 291.367 918.533 293.1C916.933 294.833 916.133 296.967 916.133 299.5C916.133 302.033 916.933 304.167 918.533 305.9ZM948.155 322.45H943.855V287H948.155V290.85C949.022 289.583 950.238 288.55 951.805 287.75C953.405 286.917 955.122 286.5 956.955 286.5C960.422 286.5 963.322 287.767 965.655 290.3C968.022 292.833 969.205 295.9 969.205 299.5C969.205 303.1 968.022 306.167 965.655 308.7C963.322 311.233 960.422 312.5 956.955 312.5C955.122 312.5 953.405 312.1 951.805 311.3C950.238 310.467 949.022 309.417 948.155 308.15V322.45ZM950.205 305.95C951.805 307.683 953.838 308.55 956.305 308.55C958.772 308.55 960.805 307.683 962.405 305.95C964.005 304.217 964.805 302.067 964.805 299.5C964.805 296.933 964.005 294.783 962.405 293.05C960.805 291.317 958.772 290.45 956.305 290.45C953.838 290.45 951.805 291.317 950.205 293.05C948.605 294.783 947.805 296.933 947.805 299.5C947.805 302.067 948.605 304.217 950.205 305.95ZM985.848 312.5C982.215 312.5 979.198 311.267 976.798 308.8C974.431 306.333 973.248 303.233 973.248 299.5C973.248 295.733 974.398 292.633 976.698 290.2C979.031 287.733 982.115 286.5 985.948 286.5C989.815 286.5 992.848 287.867 995.048 290.6C997.248 293.333 998.215 296.683 997.948 300.65H977.598C977.665 302.917 978.498 304.817 980.098 306.35C981.698 307.85 983.631 308.6 985.898 308.6C989.298 308.6 991.715 307.2 993.148 304.4H997.548C996.915 306.733 995.565 308.667 993.498 310.2C991.431 311.733 988.881 312.5 985.848 312.5ZM990.748 292.1C989.381 290.9 987.731 290.3 985.798 290.3C983.865 290.3 982.131 290.883 980.598 292.05C979.098 293.217 978.165 294.95 977.798 297.25H993.398C992.998 294.983 992.115 293.267 990.748 292.1ZM1003.95 312V287H1008.25V291.85C1008.72 290.317 1009.62 289.083 1010.95 288.15C1012.32 287.217 1013.75 286.75 1015.25 286.75C1015.99 286.75 1016.64 286.817 1017.2 286.95V291.4C1016.6 291.133 1015.82 291 1014.85 291C1013.12 291 1011.59 291.75 1010.25 293.25C1008.92 294.75 1008.25 296.867 1008.25 299.6V312H1003.95ZM1028 300.2V299.2C1028 297.067 1029.52 294.9 1032.55 292.7C1034.19 291.5 1035.37 290.45 1036.1 289.55C1036.84 288.65 1037.2 287.533 1037.2 286.2C1037.2 284.467 1036.64 283.017 1035.5 281.85C1034.4 280.683 1032.97 280.1 1031.2 280.1C1029.2 280.1 1027.57 280.717 1026.3 281.95C1025.07 283.15 1024.45 284.75 1024.45 286.75H1020.15C1020.15 283.717 1021.2 281.15 1023.3 279.05C1025.4 276.95 1028.04 275.9 1031.2 275.9C1034.24 275.9 1036.7 276.9 1038.6 278.9C1040.54 280.9 1041.5 283.3 1041.5 286.1C1041.5 288.1 1041.02 289.8 1040.05 291.2C1039.09 292.6 1037.82 293.9 1036.25 295.1C1036.12 295.2 1035.85 295.4 1035.45 295.7C1035.09 296 1034.82 296.217 1034.65 296.35C1034.49 296.483 1034.24 296.683 1033.9 296.95C1033.6 297.217 1033.39 297.45 1033.25 297.65C1033.12 297.817 1032.95 298.033 1032.75 298.3C1032.59 298.533 1032.47 298.783 1032.4 299.05C1032.34 299.283 1032.3 299.533 1032.3 299.8V300.2H1028ZM1032.7 311.3C1032 312.033 1031.14 312.4 1030.1 312.4C1029.07 312.4 1028.19 312.033 1027.45 311.3C1026.75 310.567 1026.4 309.683 1026.4 308.65C1026.4 307.65 1026.77 306.783 1027.5 306.05C1028.24 305.283 1029.1 304.9 1030.1 304.9C1031.1 304.9 1031.97 305.283 1032.7 306.05C1033.44 306.783 1033.8 307.65 1033.8 308.65C1033.8 309.683 1033.44 310.567 1032.7 311.3Z" fill="white"/>
<g clip-path="url(#clip0_1_1109)">
<path d="M609.965 70.8584V71.7072C609.811 73.4028 609.051 74.986 607.825 76.1675C606.599 77.349 604.989 78.0499 603.289 78.1422H595.809V77.966L602.917 70.8584H609.965Z" fill="#6EE7B7"/>
<path d="M602.917 63.9724V70.8585L595.809 77.9661V70.8585H595.818C595.869 69.0887 596.58 67.402 597.812 66.1302C599.044 64.8583 600.707 64.0934 602.474 63.9859C602.617 63.9765 602.76 63.9724 602.905 63.9724H602.917Z" fill="#34D399"/>
<path d="M616.926 71.064C616.927 74.7827 615.453 78.35 612.826 80.9822C610.199 83.6145 606.635 85.0966 602.917 85.1029H602.887C601.044 85.1037 599.218 84.7411 597.514 84.0359C595.811 83.3306 594.263 82.2966 592.959 80.9928C591.655 79.689 590.621 78.141 589.916 76.4374C589.211 74.7338 588.848 72.9079 588.849 71.064C588.849 70.9953 588.849 70.9266 588.849 70.8585C588.901 67.1704 590.404 63.6512 593.031 61.0624C595.658 58.4736 599.199 57.0232 602.887 57.0251H602.917C605.394 57.0264 607.827 57.6864 609.965 58.9377V63.9859H603.336C603.198 63.9769 603.058 63.9723 602.917 63.9723H602.905C602.76 63.9723 602.617 63.9765 602.474 63.9859C600.707 64.0934 599.044 64.8583 597.812 66.1301C596.58 67.4019 595.869 69.0886 595.818 70.8585H595.809V78.1422H603.289C604.989 78.05 606.599 77.3491 607.825 76.1676C609.051 74.986 609.811 73.4028 609.965 71.7073V63.9859H615.014C616.235 66.0727 616.893 68.4408 616.924 70.8585C616.925 70.9266 616.926 70.9953 616.926 71.064Z" fill="#D1FAE5"/>
<path d="M609.995 63.9565H602.887V70.8879H609.995V63.9565Z" fill="#A7F3D0"/>
<path d="M619.775 70.8874C619.787 75.1876 618.147 79.3281 615.193 82.4533C613.52 84.2278 611.484 85.6202 609.223 86.5355C606.962 87.4508 604.531 87.8675 602.094 87.757C598.826 87.6033 595.672 86.5032 593.016 84.5903C590.361 82.6774 588.319 80.0342 587.138 76.9822C585.957 73.9301 585.688 70.6007 586.364 67.3987C587.04 64.1967 588.632 61.2601 590.946 58.9461C593.919 55.9729 597.894 54.2156 602.094 54.0177C606.294 53.8199 610.417 55.1958 613.656 57.8765C613.998 57.632 614.418 57.5204 614.836 57.5626C615.254 57.6047 615.643 57.7978 615.929 58.1057C616.216 58.4136 616.38 58.8152 616.392 59.2355C616.404 59.6559 616.262 60.0661 615.994 60.3896C615.725 60.7132 615.348 60.9278 614.933 60.9935C614.517 61.0592 614.092 60.9715 613.737 60.7466C613.382 60.5218 613.12 60.1753 613.002 59.7718C612.883 59.3684 612.916 58.9356 613.093 58.5543C609.484 55.5586 604.752 54.2792 599.915 55.1474C597.748 55.5362 595.69 56.3868 593.881 57.6415C588.643 61.2775 586.075 67.3419 587.105 73.6147C587.491 75.9607 588.413 78.1861 589.799 80.1178C593.505 85.2823 599.608 87.757 605.885 86.6233C608.051 86.2315 610.108 85.3776 611.915 84.1198C616.377 81.0125 618.894 76.1447 618.894 70.8874C618.899 68.7078 618.455 66.5505 617.59 64.5499C617.544 64.4428 617.541 64.3215 617.584 64.2128C617.627 64.104 617.711 64.0166 617.818 63.9699C617.925 63.9231 618.046 63.9209 618.155 63.9635C618.264 64.0062 618.351 64.0904 618.398 64.1975C619.312 66.3092 619.78 68.5865 619.775 70.8874Z" fill="#34D399"/>
</g>
<path d="M631.856 80.5196C630.973 80.5196 630.15 80.329 629.388 79.948C628.643 79.5496 628.072 79.0733 627.673 78.5191V80.2598H624.815V60.7742H627.673V69.0101C628.072 68.4558 628.643 67.9882 629.388 67.6071C630.15 67.2088 630.973 67.0096 631.856 67.0096C633.623 67.0096 635.104 67.6677 636.299 68.9841C637.511 70.3005 638.117 71.894 638.117 73.7646C638.117 75.6352 637.511 77.2287 636.299 78.545C635.104 79.8614 633.623 80.5196 631.856 80.5196ZM631.336 77.9215C632.462 77.9215 633.389 77.5231 634.116 76.7264C634.844 75.9296 635.208 74.9424 635.208 73.7646C635.208 72.5868 634.844 71.5995 634.116 70.8028C633.389 70.006 632.462 69.6076 631.336 69.6076C630.193 69.6076 629.258 70.006 628.531 70.8028C627.803 71.5995 627.439 72.5868 627.439 73.7646C627.439 74.9424 627.803 75.9296 628.531 76.7264C629.258 77.5231 630.193 77.9215 631.336 77.9215ZM646.77 80.5196C644.83 80.5196 643.236 79.8874 641.989 78.623C640.742 77.3413 640.119 75.7218 640.119 73.7646C640.119 71.8074 640.733 70.1965 641.963 68.9321C643.193 67.6504 644.804 67.0096 646.796 67.0096C648.805 67.0096 650.424 67.711 651.654 69.114C652.884 70.4997 653.429 72.2837 653.291 74.4661H642.95C642.985 75.4706 643.366 76.3107 644.094 76.9862C644.821 77.6617 645.748 77.9994 646.874 77.9994C648.467 77.9994 649.558 77.3932 650.147 76.1808H653.135C652.737 77.4452 651.974 78.4844 650.849 79.2985C649.723 80.1125 648.363 80.5196 646.77 80.5196ZM646.718 69.3998C645.782 69.3998 644.977 69.6683 644.301 70.2052C643.643 70.7248 643.219 71.4696 643.028 72.4395H650.225C650.017 71.435 649.593 70.6815 648.952 70.1792C648.311 69.6596 647.566 69.3998 646.718 69.3998ZM656.226 80.2598V67.2694H659.084V69.5817C659.326 68.8542 659.768 68.2653 660.409 67.815C661.067 67.3646 661.768 67.1395 662.513 67.1395C662.963 67.1395 663.336 67.1741 663.63 67.2434V70.1792C663.214 70.0233 662.738 69.9454 662.201 69.9454C661.335 69.9454 660.599 70.3005 659.993 71.0106C659.387 71.7034 659.084 72.6734 659.084 73.9205V80.2598H656.226ZM666.095 80.2598V67.2694H668.953V69.5817C669.196 68.8542 669.637 68.2653 670.278 67.815C670.936 67.3646 671.638 67.1395 672.383 67.1395C672.833 67.1395 673.205 67.1741 673.5 67.2434V70.1792C673.084 70.0233 672.608 69.9454 672.071 69.9454C671.205 69.9454 670.469 70.3005 669.863 71.0106C669.256 71.7034 668.953 72.6734 668.953 73.9205V80.2598H666.095ZM680.122 85.6897H676.978L679.758 79.5583L674.172 67.2694H677.316L681.291 76.4666L685.292 67.2694H688.462L680.122 85.6897ZM690.452 80.2598V60.7742H693.31V80.2598H690.452ZM702.892 80.5196C700.952 80.5196 699.359 79.8874 698.112 78.623C696.865 77.3413 696.241 75.7218 696.241 73.7646C696.241 71.8074 696.856 70.1965 698.086 68.9321C699.316 67.6504 700.926 67.0096 702.918 67.0096C704.927 67.0096 706.547 67.711 707.777 69.114C709.006 70.4997 709.552 72.2837 709.413 74.4661H699.073C699.108 75.4706 699.489 76.3107 700.216 76.9862C700.944 77.6617 701.87 77.9994 702.996 77.9994C704.59 77.9994 705.681 77.3932 706.27 76.1808H709.257C708.859 77.4452 708.097 78.4844 706.971 79.2985C705.845 80.1125 704.486 80.5196 702.892 80.5196ZM702.84 69.3998C701.905 69.3998 701.1 69.6683 700.424 70.2052C699.766 70.7248 699.341 71.4696 699.151 72.4395H706.348C706.14 71.435 705.715 70.6815 705.075 70.1792C704.434 69.6596 703.689 69.3998 702.84 69.3998ZM717.674 80.5196C715.908 80.5196 714.418 79.8614 713.206 78.545C712.01 77.2287 711.413 75.6352 711.413 73.7646C711.413 71.894 712.01 70.3005 713.206 68.9841C714.418 67.6677 715.908 67.0096 717.674 67.0096C718.558 67.0096 719.372 67.2088 720.116 67.6071C720.861 67.9882 721.433 68.4558 721.831 69.0101V67.2694H724.689V80.2598H721.831V78.5191C721.433 79.0733 720.861 79.5496 720.116 79.948C719.372 80.329 718.558 80.5196 717.674 80.5196ZM715.414 76.7264C716.141 77.5231 717.068 77.9215 718.194 77.9215C719.32 77.9215 720.246 77.5231 720.974 76.7264C721.701 75.9296 722.065 74.9424 722.065 73.7646C722.065 72.5868 721.701 71.5995 720.974 70.8028C720.246 70.006 719.32 69.6076 718.194 69.6076C717.068 69.6076 716.141 70.006 715.414 70.8028C714.686 71.5995 714.323 72.5868 714.323 73.7646C714.323 74.9424 714.686 75.9296 715.414 76.7264ZM729.782 80.2598V69.8155H727.08V67.2694H729.782V65.087C729.782 63.684 730.198 62.5928 731.029 61.8134C731.86 61.0167 732.926 60.6183 734.225 60.6183C735.021 60.6183 735.731 60.7222 736.355 60.9301V63.4762C735.957 63.303 735.446 63.2164 734.822 63.2164C734.06 63.2164 733.506 63.3896 733.159 63.736C732.813 64.0651 732.64 64.628 732.64 65.4247V67.2694H736.355V69.8155H732.64V80.2598H729.782Z" fill="white"/>
<g clip-path="url(#clip1_1_1109)">
<path d="M1296.49 235.58C1319.69 235.58 1338.49 216.777 1338.49 193.582C1338.49 170.387 1319.69 151.583 1296.49 151.583C1273.3 151.583 1254.5 170.387 1254.5 193.582C1254.5 216.777 1273.3 235.58 1296.49 235.58Z" fill="#119FCA"/>
<path d="M1516.99 192.505C1516.99 159.379 1486.28 130.294 1437.4 111.211C1445.3 59.2896 1435.46 18.1306 1406.74 1.56731C1381.1 -13.2373 1345.58 -5.99249 1306.73 21.9893C1303.29 24.4567 1299.88 27.0817 1296.47 29.8116C1293.08 27.0817 1289.67 24.4567 1286.26 21.9893C1247.41 -5.99249 1211.89 -13.2636 1186.25 1.56731C1157.56 18.1306 1147.71 59.2633 1155.64 111.132C1106.71 130.242 1076 159.352 1076 192.505C1076 225.632 1106.71 254.715 1155.59 273.799C1147.69 325.721 1157.53 366.879 1186.25 383.442C1194.94 388.457 1204.78 390.95 1215.49 390.95C1236.36 390.95 1260.59 381.501 1286.26 363.021C1289.7 360.553 1293.11 357.929 1296.52 355.199C1299.91 357.929 1303.32 360.553 1306.73 363.021C1332.4 381.527 1356.63 390.95 1377.5 390.95C1388.21 390.95 1398.05 388.457 1406.74 383.442C1432.39 368.638 1443.86 334.251 1439.05 286.608C1438.63 282.409 1438.08 278.156 1437.4 273.826C1486.3 254.742 1516.99 225.658 1516.99 192.505ZM1319.02 39.0252C1340.86 23.3018 1361.17 15.112 1377.5 15.112C1384.56 15.112 1390.86 16.6344 1396.24 19.7319C1415.04 30.5991 1423.07 61.757 1417.32 104.228C1398.42 98.4273 1377.5 93.9912 1355 91.1563C1341.54 73.438 1327.26 57.4522 1312.64 43.8025C1314.76 42.1751 1316.89 40.5476 1319.02 39.0252ZM1196.75 19.7319C1202.13 16.6344 1208.43 15.112 1215.49 15.112C1231.82 15.112 1252.13 23.2756 1273.97 39.0252C1276.1 40.5476 1278.23 42.1487 1280.35 43.8025C1265.73 57.4522 1251.48 73.4118 1238.01 91.1301C1215.54 93.9649 1194.59 98.4273 1175.7 104.202C1169.95 61.757 1177.95 30.5991 1196.75 19.7319ZM1097 192.505C1097 170.796 1119.99 148.248 1159.66 132C1164.09 151.241 1170.71 171.584 1179.45 192.453C1170.66 213.346 1164.04 233.716 1159.6 252.984C1119.99 236.736 1097 214.213 1097 192.505ZM1273.97 345.985C1242.68 368.506 1214.54 375.542 1196.75 365.278C1177.95 354.41 1169.92 323.253 1175.67 280.782C1194.57 286.583 1215.49 291.018 1237.98 293.854C1251.45 311.572 1265.73 327.558 1280.35 341.207C1278.23 342.862 1276.1 344.462 1273.97 345.985ZM1296.49 327.532C1270.25 303.487 1245.02 271.358 1223.73 234.504C1218.04 224.661 1206.52 199.917 1201.85 190.337C1198.12 199.261 1194.44 207.449 1191.55 216.163C1193.91 220.547 1203.02 240.594 1205.54 244.977C1210.53 253.613 1215.75 262.013 1221.13 270.15C1206.04 267.499 1192.07 264.087 1179.37 260.071C1186.59 227.469 1201 189.88 1223.73 150.506C1229.32 140.82 1241.47 119.193 1247.56 110.216C1237.95 111.45 1230.24 111.041 1221.21 112.905C1218.58 117.157 1208.06 135.649 1205.54 140.033C1200.5 148.747 1195.88 157.462 1191.55 166.124C1186.3 151.714 1182.28 137.906 1179.42 124.887C1211.26 114.833 1251.03 108.507 1296.49 108.507C1307.86 108.507 1331.6 108.277 1342.2 109.038C1336.35 101.347 1331.33 94.385 1325.21 87.5076C1320.25 87.3502 1301.56 87.5076 1296.49 87.5076C1286.47 87.5076 1276.65 87.8489 1267.02 88.4264C1276.57 77.0605 1286.47 66.6657 1296.49 57.4784C1322.72 81.5228 1347.97 113.652 1369.26 150.506C1374.85 160.192 1386.93 182.74 1391.68 192.505C1395.43 183.58 1398.99 175.441 1401.9 166.674C1399.54 162.264 1389.97 144.363 1387.45 140.006C1382.46 131.37 1377.24 122.97 1371.86 114.859C1386.95 117.511 1400.91 120.923 1413.62 124.939C1406.4 157.541 1391.99 195.13 1369.26 234.504C1363.67 244.19 1347.75 266.371 1341.66 275.348C1351.27 274.114 1361.68 272.27 1370.71 270.406C1373.33 266.153 1384.93 249.361 1387.45 244.977C1392.46 236.315 1397.08 227.653 1401.36 219.017C1406.45 233.034 1410.5 246.815 1413.43 260.149C1381.62 270.203 1341.91 276.503 1296.49 276.503C1285.13 276.503 1258.7 275.008 1248.1 274.246C1253.95 281.937 1260.26 289.945 1266.37 296.822C1271.33 296.979 1291.43 297.502 1296.49 297.502C1306.52 297.502 1316.34 297.161 1325.97 296.584C1316.39 307.95 1306.52 318.344 1296.49 327.532ZM1396.24 365.278C1378.45 375.568 1350.28 368.533 1319.02 345.985C1316.89 344.462 1314.76 342.862 1312.64 341.207C1327.26 327.558 1341.51 311.598 1354.98 293.879C1377.42 291.045 1398.32 286.608 1417.19 280.834C1417.56 283.485 1417.92 286.136 1418.19 288.735C1422.05 327.112 1414.04 354.988 1396.24 365.278ZM1433.38 253.01C1428.87 233.48 1422.18 213.137 1413.54 192.584C1422.33 171.689 1428.95 151.32 1433.38 132.053C1472.99 148.301 1495.99 170.796 1495.99 192.505C1495.99 214.213 1473.02 236.736 1433.38 253.01Z" fill="#119FCA"/>
</g>
</g>
<defs>
<linearGradient id="paint0_linear_1_1109" x1="661" y1="0" x2="661" y2="671" gradientUnits="userSpaceOnUse">
<stop stop-color="#1F2937"/>
<stop offset="1" stop-color="#1F2937" stop-opacity="0"/>
</linearGradient>
<clipPath id="clip0_1_1109">
<rect width="33.775" height="33.775" fill="white" transform="translate(586 54)"/>
</clipPath>
<clipPath id="clip1_1_1109">
<rect width="441" height="441" fill="white" transform="translate(1076 -28)"/>
</clipPath>
</defs>
</svg>
