<svg width="1280" height="720" viewBox="0 0 1280 720" fill="none" xmlns="http://www.w3.org/2000/svg">
<mask id="mask0_1_1129" style="mask-type:alpha" maskUnits="userSpaceOnUse" x="0" y="0" width="1280" height="720">
<rect width="1280" height="720" rx="19.4366" fill="#1F2937"/>
</mask>
<g mask="url(#mask0_1_1129)">
<rect width="1280" height="720" rx="19.4366" fill="url(#paint0_linear_1_1129)"/>
<path d="M326.896 410.549V317.399H347.757V353.872H385.279V317.399H406.139V410.549H385.279V373.683H347.757V410.549H326.896ZM448.897 383.654C454.233 389.164 460.661 391.919 468.183 391.919C475.705 391.919 482.09 389.164 487.338 383.654C492.586 378.144 495.21 371.584 495.21 363.974C495.21 356.365 492.586 349.805 487.338 344.295C482.09 338.784 475.705 336.029 468.183 336.029C460.661 336.029 454.233 338.784 448.897 344.295C443.649 349.805 441.025 356.365 441.025 363.974C441.025 371.584 443.649 378.144 448.897 383.654ZM502.163 397.954C492.805 407.401 481.478 412.124 468.183 412.124C454.889 412.124 443.518 407.444 434.072 398.086C424.713 388.639 420.034 377.269 420.034 363.974C420.034 350.68 424.713 339.353 434.072 329.994C443.518 320.548 454.889 315.825 468.183 315.825C481.478 315.825 492.805 320.548 502.163 329.994C511.61 339.44 516.333 350.767 516.333 363.974C516.333 377.181 511.61 388.508 502.163 397.954ZM602.388 410.549L582.577 365.024L562.766 410.549H542.955L521.439 317.399H543.743L556.469 376.438L582.577 315.825L608.816 376.438L621.542 317.399H643.846L622.198 410.549H602.388Z" fill="white"/>
<path d="M674.447 349.173C672.212 349.173 670.414 348.541 669.053 347.278C667.693 346.014 667.013 344.168 667.013 341.738V328.473H661.862V324.634H667.013V317.88H671.192V324.634H678.189V328.473H671.192V341.204C671.192 342.726 671.515 343.795 672.163 344.411C672.811 345.026 673.832 345.334 675.225 345.334C676.456 345.334 677.444 345.172 678.189 344.848V348.59C677.023 348.978 675.775 349.173 674.447 349.173ZM693.788 349.416C690.127 349.416 687.082 348.201 684.653 345.771C682.255 343.309 681.057 340.313 681.057 336.782C681.057 333.251 682.255 330.271 684.653 327.841C687.082 325.379 690.127 324.148 693.788 324.148C697.416 324.148 700.429 325.379 702.826 327.841C705.255 330.271 706.47 333.251 706.47 336.782C706.47 340.313 705.255 343.309 702.826 345.771C700.429 348.201 697.416 349.416 693.788 349.416ZM687.665 343.002C689.253 344.686 691.293 345.528 693.788 345.528C696.282 345.528 698.307 344.686 699.862 343.002C701.417 341.317 702.194 339.244 702.194 336.782C702.194 334.32 701.417 332.247 699.862 330.562C698.307 328.878 696.282 328.035 693.788 328.035C691.293 328.035 689.253 328.878 687.665 330.562C686.11 332.247 685.333 334.32 685.333 336.782C685.333 339.244 686.11 341.317 687.665 343.002ZM734.588 349.416C730.927 349.416 727.898 348.201 725.501 345.771C723.104 343.309 721.906 340.313 721.906 336.782C721.906 333.251 723.104 330.271 725.501 327.841C727.898 325.379 730.927 324.148 734.588 324.148C737.601 324.148 740.208 324.99 742.411 326.675C744.614 328.327 746.088 330.497 746.833 333.186H742.363C741.779 331.599 740.808 330.335 739.447 329.396C738.087 328.456 736.467 327.987 734.588 327.987C732.094 327.987 730.053 328.829 728.465 330.513C726.91 332.198 726.133 334.287 726.133 336.782C726.133 339.276 726.91 341.366 728.465 343.05C730.053 344.735 732.094 345.577 734.588 345.577C736.467 345.577 738.087 345.107 739.447 344.168C740.808 343.228 741.779 341.965 742.363 340.378H746.833C746.12 343.066 744.663 345.253 742.46 346.937C740.257 348.59 737.633 349.416 734.588 349.416ZM762.96 349.416C759.3 349.416 756.254 348.201 753.825 345.771C751.428 343.309 750.229 340.313 750.229 336.782C750.229 333.251 751.428 330.271 753.825 327.841C756.254 325.379 759.3 324.148 762.96 324.148C766.588 324.148 769.601 325.379 771.998 327.841C774.428 330.271 775.642 333.251 775.642 336.782C775.642 340.313 774.428 343.309 771.998 345.771C769.601 348.201 766.588 349.416 762.96 349.416ZM756.838 343.002C758.425 344.686 760.466 345.528 762.96 345.528C765.454 345.528 767.479 344.686 769.034 343.002C770.589 341.317 771.366 339.244 771.366 336.782C771.366 334.32 770.589 332.247 769.034 330.562C767.479 328.878 765.454 328.035 762.96 328.035C760.466 328.035 758.425 328.878 756.838 330.562C755.283 332.247 754.505 334.32 754.505 336.782C754.505 339.244 755.283 341.317 756.838 343.002ZM781.446 348.93V324.634H785.625V328.375C787.277 325.557 789.853 324.148 793.351 324.148C796.105 324.148 798.324 325.039 800.008 326.821C801.693 328.602 802.535 330.983 802.535 333.963V348.93H798.405V334.595C798.405 332.554 797.887 330.951 796.85 329.785C795.813 328.586 794.42 327.987 792.671 327.987C790.663 327.987 788.978 328.78 787.618 330.368C786.289 331.955 785.625 334.125 785.625 336.879V348.93H781.446ZM809.866 348.93V324.634H814.045V328.375C815.697 325.557 818.272 324.148 821.771 324.148C824.525 324.148 826.744 325.039 828.428 326.821C830.113 328.602 830.955 330.983 830.955 333.963V348.93H826.825V334.595C826.825 332.554 826.306 330.951 825.27 329.785C824.233 328.586 822.84 327.987 821.091 327.987C819.082 327.987 817.398 328.78 816.037 330.368C814.709 331.955 814.045 334.125 814.045 336.879V348.93H809.866ZM848.636 349.416C845.105 349.416 842.173 348.217 839.841 345.82C837.541 343.423 836.391 340.41 836.391 336.782C836.391 333.121 837.508 330.109 839.743 327.744C842.011 325.347 845.008 324.148 848.733 324.148C852.491 324.148 855.439 325.476 857.577 328.133C859.715 330.789 860.654 334.044 860.395 337.899H840.618C840.683 340.102 841.493 341.949 843.048 343.439C844.603 344.897 846.481 345.625 848.684 345.625C851.989 345.625 854.337 344.265 855.73 341.544H860.006C859.391 343.811 858.079 345.69 856.07 347.18C854.062 348.671 851.584 349.416 848.636 349.416ZM853.398 329.59C852.07 328.424 850.466 327.841 848.587 327.841C846.708 327.841 845.024 328.408 843.534 329.542C842.076 330.675 841.169 332.36 840.812 334.595H855.973C855.584 332.392 854.726 330.724 853.398 329.59ZM877.018 349.416C873.358 349.416 870.329 348.201 867.931 345.771C865.534 343.309 864.336 340.313 864.336 336.782C864.336 333.251 865.534 330.271 867.931 327.841C870.329 325.379 873.358 324.148 877.018 324.148C880.031 324.148 882.639 324.99 884.841 326.675C887.044 328.327 888.518 330.497 889.263 333.186H884.793C884.21 331.599 883.238 330.335 881.877 329.396C880.517 328.456 878.897 327.987 877.018 327.987C874.524 327.987 872.483 328.829 870.896 330.513C869.341 332.198 868.563 334.287 868.563 336.782C868.563 339.276 869.341 341.366 870.896 343.05C872.483 344.735 874.524 345.577 877.018 345.577C878.897 345.577 880.517 345.107 881.877 344.168C883.238 343.228 884.21 341.965 884.793 340.378H889.263C888.55 343.066 887.093 345.253 884.89 346.937C882.687 348.59 880.063 349.416 877.018 349.416ZM903.792 349.173C901.557 349.173 899.759 348.541 898.399 347.278C897.038 346.014 896.358 344.168 896.358 341.738V328.473H891.207V324.634H896.358V317.88H900.537V324.634H907.534V328.473H900.537V341.204C900.537 342.726 900.861 343.795 901.509 344.411C902.157 345.026 903.177 345.334 904.57 345.334C905.801 345.334 906.789 345.172 907.534 344.848V348.59C906.368 348.978 905.121 349.173 903.792 349.173ZM685.623 410.93L679.598 393.485L673.621 410.93H669.928L661.668 386.634H666.041L671.92 404.37L677.994 386.634H681.201L687.275 404.37L693.155 386.634H697.577L689.316 410.93H685.623ZM706.114 379.297C705.563 379.847 704.867 380.123 704.025 380.123C703.182 380.123 702.47 379.847 701.887 379.297C701.303 378.713 701.012 378.001 701.012 377.159C701.012 376.349 701.303 375.652 701.887 375.069C702.47 374.486 703.182 374.194 704.025 374.194C704.867 374.194 705.563 374.486 706.114 375.069C706.665 375.652 706.94 376.349 706.94 377.159C706.94 378.001 706.665 378.713 706.114 379.297ZM701.887 410.93V386.634H706.065V410.93H701.887ZM723.219 411.173C720.984 411.173 719.186 410.541 717.826 409.278C716.465 408.014 715.785 406.168 715.785 403.738V390.473H710.634V386.634H715.785V379.88H719.964V386.634H726.961V390.473H719.964V403.204C719.964 404.726 720.288 405.795 720.936 406.411C721.583 407.026 722.604 407.334 723.997 407.334C725.228 407.334 726.216 407.172 726.961 406.848V410.59C725.795 410.978 724.548 411.173 723.219 411.173ZM736.284 410.93H732.105V374.486H736.284V390.375C737.936 387.557 740.511 386.148 744.01 386.148C746.763 386.148 748.982 387.039 750.667 388.821C752.351 390.602 753.194 392.983 753.194 395.963V410.93H749.063V396.595C749.063 394.554 748.545 392.951 747.508 391.785C746.472 390.586 745.079 389.987 743.329 389.987C741.321 389.987 739.637 390.78 738.276 392.368C736.948 393.955 736.284 396.125 736.284 398.879V410.93Z" fill="white"/>
<path d="M953.699 348.93V336.344C953.699 332.619 952.533 330.756 950.201 330.756C947.415 330.756 945.957 332.781 945.828 336.83V348.93H938.49V336.344C938.49 332.619 937.324 330.756 934.992 330.756C933.631 330.756 932.562 331.291 931.785 332.36C931.007 333.397 930.618 334.984 930.618 337.122V348.93H923.281V324.634H930.618V327.112C932.173 325.104 934.247 324.099 936.838 324.099C940.239 324.099 942.734 325.525 944.321 328.375C945.034 326.983 946.103 325.93 947.528 325.217C948.954 324.472 950.379 324.099 951.804 324.099C954.752 324.099 957.02 325.071 958.607 327.015C960.227 328.959 961.037 331.647 961.037 335.081V348.93H953.699ZM986.865 345.82C984.37 348.249 981.358 349.464 977.827 349.464C974.296 349.464 971.283 348.249 968.789 345.82C966.294 343.358 965.047 340.345 965.047 336.782C965.047 333.218 966.294 330.222 968.789 327.792C971.283 325.33 974.296 324.099 977.827 324.099C981.358 324.099 984.37 325.33 986.865 327.792C989.359 330.222 990.606 333.218 990.606 336.782C990.606 340.345 989.359 343.358 986.865 345.82ZM973.939 341.009C974.976 342.078 976.272 342.613 977.827 342.613C979.382 342.613 980.661 342.078 981.665 341.009C982.702 339.94 983.22 338.531 983.22 336.782C983.22 335.033 982.702 333.623 981.665 332.554C980.661 331.485 979.382 330.951 977.827 330.951C976.272 330.951 974.976 331.485 973.939 332.554C972.935 333.623 972.433 335.033 972.433 336.782C972.433 338.531 972.935 339.94 973.939 341.009ZM994.925 348.93V324.634H1002.26V327.112C1003.66 325.104 1005.91 324.099 1009.02 324.099C1011.96 324.099 1014.26 325.087 1015.92 327.063C1017.6 329.04 1018.44 331.647 1018.44 334.887V348.93H1011.11V336.15C1011.11 332.554 1009.79 330.756 1007.17 330.756C1005.71 330.756 1004.53 331.291 1003.62 332.36C1002.72 333.429 1002.26 335.016 1002.26 337.122V348.93H994.925ZM1035.43 359.571C1032.03 359.571 1029.24 358.68 1027.07 356.899C1024.93 355.149 1023.77 352.93 1023.57 350.242H1030.72C1031.46 352.412 1033.1 353.497 1035.62 353.497C1036.98 353.497 1038.13 353.06 1039.07 352.185C1040.01 351.343 1040.48 350.112 1040.48 348.492V345.625C1039.9 346.5 1039.01 347.213 1037.81 347.763C1036.64 348.314 1035.33 348.59 1033.87 348.59C1030.76 348.59 1028.09 347.407 1025.86 345.042C1023.62 342.645 1022.5 339.746 1022.5 336.344C1022.5 332.943 1023.62 330.06 1025.86 327.695C1028.09 325.298 1030.76 324.099 1033.87 324.099C1035.33 324.099 1036.64 324.375 1037.81 324.925C1039.01 325.476 1039.9 326.189 1040.48 327.063V324.634H1047.82V347.423C1047.82 349.594 1047.46 351.489 1046.75 353.109C1046.07 354.728 1045.13 355.992 1043.93 356.899C1042.77 357.806 1041.47 358.47 1040.05 358.891C1038.62 359.344 1037.08 359.571 1035.43 359.571ZM1031.54 340.378C1032.64 341.414 1033.96 341.933 1035.48 341.933C1037 341.933 1038.31 341.414 1039.41 340.378C1040.52 339.341 1041.07 337.997 1041.07 336.344C1041.07 334.692 1040.52 333.348 1039.41 332.311C1038.31 331.275 1037 330.756 1035.48 330.756C1033.96 330.756 1032.64 331.275 1031.54 332.311C1030.44 333.348 1029.89 334.692 1029.89 336.344C1029.89 337.997 1030.44 339.341 1031.54 340.378ZM1073.97 345.82C1071.48 348.249 1068.47 349.464 1064.94 349.464C1061.41 349.464 1058.39 348.249 1055.9 345.82C1053.4 343.358 1052.16 340.345 1052.16 336.782C1052.16 333.218 1053.4 330.222 1055.9 327.792C1058.39 325.33 1061.41 324.099 1064.94 324.099C1068.47 324.099 1071.48 325.33 1073.97 327.792C1076.47 330.222 1077.72 333.218 1077.72 336.782C1077.72 340.345 1076.47 343.358 1073.97 345.82ZM1061.05 341.009C1062.09 342.078 1063.38 342.613 1064.94 342.613C1066.49 342.613 1067.77 342.078 1068.77 341.009C1069.81 339.94 1070.33 338.531 1070.33 336.782C1070.33 335.033 1069.81 333.623 1068.77 332.554C1067.77 331.485 1066.49 330.951 1064.94 330.951C1063.38 330.951 1062.09 331.485 1061.05 332.554C1060.04 333.623 1059.54 335.033 1059.54 336.782C1059.54 338.531 1060.04 339.94 1061.05 341.009ZM1102.35 345.82C1099.85 348.249 1096.84 349.464 1093.31 349.464C1089.78 349.464 1086.76 348.249 1084.27 345.82C1081.78 343.358 1080.53 340.345 1080.53 336.782C1080.53 333.218 1081.78 330.222 1084.27 327.792C1086.76 325.33 1089.78 324.099 1093.31 324.099C1096.84 324.099 1099.85 325.33 1102.35 327.792C1104.84 330.222 1106.09 333.218 1106.09 336.782C1106.09 340.345 1104.84 343.358 1102.35 345.82ZM1089.42 341.009C1090.46 342.078 1091.75 342.613 1093.31 342.613C1094.86 342.613 1096.14 342.078 1097.15 341.009C1098.18 339.94 1098.7 338.531 1098.7 336.782C1098.7 335.033 1098.18 333.623 1097.15 332.554C1096.14 331.485 1094.86 330.951 1093.31 330.951C1091.75 330.951 1090.46 331.485 1089.42 332.554C1088.42 333.623 1087.91 335.033 1087.91 336.782C1087.91 338.531 1088.42 339.94 1089.42 341.009ZM1120.22 349.464C1116.98 349.464 1114.31 348.671 1112.21 347.083C1110.13 345.463 1109.03 343.439 1108.9 341.009H1116.63C1116.69 341.949 1117.08 342.678 1117.79 343.196C1118.51 343.682 1119.4 343.925 1120.47 343.925C1122.28 343.925 1123.19 343.406 1123.19 342.37C1123.19 341.852 1122.98 341.463 1122.56 341.204C1122.17 340.912 1121.45 340.621 1120.42 340.329L1115.51 339.066C1111.43 337.997 1109.39 335.454 1109.39 331.437C1109.39 329.266 1110.29 327.501 1112.11 326.14C1113.92 324.78 1116.4 324.099 1119.54 324.099C1122.33 324.099 1124.64 324.796 1126.49 326.189C1128.37 327.549 1129.41 329.477 1129.6 331.971H1122.21C1121.92 330.481 1120.98 329.736 1119.4 329.736C1117.74 329.736 1116.92 330.254 1116.92 331.291C1116.92 332.198 1117.74 332.83 1119.4 333.186L1123.82 334.352C1126.25 335 1128 335.94 1129.07 337.171C1130.14 338.402 1130.67 340.005 1130.67 341.981C1130.67 344.216 1129.7 346.03 1127.75 347.423C1125.81 348.784 1123.3 349.464 1120.22 349.464ZM1146.4 349.464C1142.64 349.464 1139.55 348.266 1137.12 345.868C1134.72 343.471 1133.53 340.426 1133.53 336.733C1133.53 333.105 1134.74 330.092 1137.17 327.695C1139.63 325.298 1142.71 324.099 1146.4 324.099C1148.18 324.099 1149.85 324.407 1151.41 325.023C1152.99 325.638 1154.39 326.529 1155.59 327.695C1156.82 328.861 1157.77 330.368 1158.45 332.214C1159.13 334.061 1159.44 336.15 1159.38 338.483H1140.67C1140.8 339.811 1141.38 340.928 1142.42 341.835C1143.45 342.71 1144.91 343.147 1146.79 343.147C1147.86 343.147 1148.83 342.937 1149.71 342.516C1150.58 342.062 1151.16 341.511 1151.46 340.863H1159.13C1158.36 343.423 1156.8 345.496 1154.47 347.083C1152.14 348.671 1149.45 349.464 1146.4 349.464ZM1146.21 329.93C1144.81 329.93 1143.65 330.287 1142.71 330.999C1141.8 331.712 1141.19 332.652 1140.86 333.818H1151.26C1150.9 332.49 1150.24 331.518 1149.27 330.902C1148.33 330.254 1147.31 329.93 1146.21 329.93Z" fill="#61C454"/>
<path d="M780.943 411.464C777.801 411.464 775.128 410.217 772.926 407.723C770.755 405.228 769.67 402.248 769.67 398.782C769.67 395.316 770.755 392.335 772.926 389.841C775.128 387.347 777.801 386.099 780.943 386.099C783.729 386.099 785.932 387.087 787.552 389.063V374.486H794.889V410.93H787.552V408.5C785.932 410.476 783.729 411.464 780.943 411.464ZM778.562 403.106C779.599 404.24 780.943 404.807 782.595 404.807C784.247 404.807 785.576 404.24 786.58 403.106C787.616 401.973 788.135 400.531 788.135 398.782C788.135 397.033 787.616 395.591 786.58 394.457C785.576 393.323 784.247 392.756 782.595 392.756C780.943 392.756 779.599 393.323 778.562 394.457C777.558 395.591 777.056 397.033 777.056 398.782C777.056 400.531 777.558 401.973 778.562 403.106ZM804.378 383.33C803.147 383.33 802.078 382.892 801.171 382.018C800.264 381.111 799.81 380.025 799.81 378.762C799.81 377.499 800.264 376.43 801.171 375.555C802.078 374.648 803.147 374.194 804.378 374.194C805.674 374.194 806.759 374.648 807.634 375.555C808.541 376.43 808.994 377.499 808.994 378.762C808.994 380.025 808.541 381.111 807.634 382.018C806.759 382.892 805.674 383.33 804.378 383.33ZM800.734 410.93V386.634H808.071V410.93H800.734ZM825.388 421.571C821.987 421.571 819.201 420.68 817.031 418.899C814.893 417.149 813.726 414.93 813.532 412.242H820.675C821.42 414.412 823.056 415.497 825.583 415.497C826.943 415.497 828.093 415.06 829.033 414.185C829.972 413.343 830.442 412.112 830.442 410.492V407.625C829.859 408.5 828.968 409.213 827.769 409.763C826.603 410.314 825.291 410.59 823.834 410.59C820.724 410.59 818.051 409.407 815.816 407.042C813.581 404.645 812.463 401.746 812.463 398.344C812.463 394.943 813.581 392.06 815.816 389.695C818.051 387.298 820.724 386.099 823.834 386.099C825.291 386.099 826.603 386.375 827.769 386.925C828.968 387.476 829.859 388.189 830.442 389.063V386.634H837.779V409.423C837.779 411.594 837.423 413.489 836.71 415.109C836.03 416.728 835.091 417.992 833.892 418.899C832.726 419.806 831.43 420.47 830.005 420.891C828.579 421.344 827.041 421.571 825.388 421.571ZM821.501 402.378C822.603 403.414 823.914 403.933 825.437 403.933C826.96 403.933 828.272 403.414 829.373 402.378C830.474 401.341 831.025 399.997 831.025 398.344C831.025 396.692 830.474 395.348 829.373 394.311C828.272 393.275 826.96 392.756 825.437 392.756C823.914 392.756 822.603 393.275 821.501 394.311C820.4 395.348 819.849 396.692 819.849 398.344C819.849 399.997 820.4 401.341 821.501 402.378ZM847.266 383.33C846.035 383.33 844.966 382.892 844.059 382.018C843.152 381.111 842.698 380.025 842.698 378.762C842.698 377.499 843.152 376.43 844.059 375.555C844.966 374.648 846.035 374.194 847.266 374.194C848.562 374.194 849.647 374.648 850.522 375.555C851.429 376.43 851.882 377.499 851.882 378.762C851.882 380.025 851.429 381.111 850.522 382.018C849.647 382.892 848.562 383.33 847.266 383.33ZM843.622 410.93V386.634H850.959V410.93H843.622ZM869.2 411.221C866.349 411.221 864.001 410.444 862.154 408.889C860.34 407.302 859.433 405.018 859.433 402.037V392.999H854.574V386.634H859.433V379.88H866.77V386.634H873.573V392.999H866.77V400.531C866.77 401.989 867.094 403.042 867.742 403.69C868.39 404.337 869.443 404.661 870.901 404.661C872.002 404.661 872.893 404.516 873.573 404.224V410.735C872.504 411.059 871.046 411.221 869.2 411.221ZM887.499 411.464C884.357 411.464 881.684 410.217 879.481 407.723C877.311 405.228 876.226 402.248 876.226 398.782C876.226 395.316 877.311 392.335 879.481 389.841C881.684 387.347 884.357 386.099 887.499 386.099C890.285 386.099 892.488 387.087 894.108 389.063V386.634H901.445V410.93H894.108V408.5C892.488 410.476 890.285 411.464 887.499 411.464ZM885.118 403.106C886.155 404.24 887.499 404.807 889.151 404.807C890.803 404.807 892.131 404.24 893.136 403.106C894.172 401.973 894.691 400.531 894.691 398.782C894.691 397.033 894.172 395.591 893.136 394.457C892.131 393.323 890.803 392.756 889.151 392.756C887.499 392.756 886.155 393.323 885.118 394.457C884.114 395.591 883.612 397.033 883.612 398.782C883.612 400.531 884.114 401.973 885.118 403.106ZM907.29 410.93V374.486H914.627V410.93H907.29ZM940.788 407.82C938.294 410.249 935.281 411.464 931.75 411.464C928.219 411.464 925.206 410.249 922.712 407.82C920.218 405.358 918.97 402.345 918.97 398.782C918.97 395.218 920.218 392.222 922.712 389.792C925.206 387.33 928.219 386.099 931.75 386.099C935.281 386.099 938.294 387.33 940.788 389.792C943.282 392.222 944.53 395.218 944.53 398.782C944.53 402.345 943.282 405.358 940.788 407.82ZM927.863 403.009C928.899 404.078 930.195 404.613 931.75 404.613C933.305 404.613 934.585 404.078 935.589 403.009C936.625 401.94 937.144 400.531 937.144 398.782C937.144 397.033 936.625 395.623 935.589 394.554C934.585 393.485 933.305 392.951 931.75 392.951C930.195 392.951 928.899 393.485 927.863 394.554C926.858 395.623 926.356 397.033 926.356 398.782C926.356 400.531 926.858 401.94 927.863 403.009ZM960.171 411.464C956.51 411.464 953.465 410.249 951.036 407.82C948.606 405.358 947.391 402.345 947.391 398.782C947.391 395.218 948.606 392.222 951.036 389.792C953.465 387.33 956.51 386.099 960.171 386.099C963.507 386.099 966.261 387.023 968.431 388.869C970.602 390.716 972.027 393.129 972.707 396.109H965.127C964.058 393.842 962.406 392.708 960.171 392.708C958.583 392.708 957.288 393.259 956.283 394.36C955.279 395.429 954.777 396.903 954.777 398.782C954.777 400.661 955.279 402.151 956.283 403.252C957.288 404.321 958.583 404.856 960.171 404.856C962.406 404.856 964.058 403.722 965.127 401.454H972.707C972.027 404.435 970.602 406.848 968.431 408.694C966.261 410.541 963.507 411.464 960.171 411.464ZM988.166 411.464C984.408 411.464 981.314 410.266 978.885 407.868C976.487 405.471 975.289 402.426 975.289 398.733C975.289 395.105 976.504 392.092 978.933 389.695C981.395 387.298 984.473 386.099 988.166 386.099C989.947 386.099 991.616 386.407 993.171 387.023C994.758 387.638 996.151 388.529 997.349 389.695C998.58 390.861 999.536 392.368 1000.22 394.214C1000.9 396.061 1001.2 398.15 1001.14 400.483H982.432C982.561 401.811 983.144 402.928 984.181 403.835C985.218 404.71 986.675 405.147 988.554 405.147C989.623 405.147 990.595 404.937 991.47 404.516C992.344 404.062 992.928 403.511 993.219 402.863H1000.9C1000.12 405.423 998.564 407.496 996.232 409.083C993.899 410.671 991.211 411.464 988.166 411.464ZM987.971 391.93C986.578 391.93 985.412 392.287 984.473 392.999C983.566 393.712 982.95 394.652 982.626 395.818H993.025C992.668 394.49 992.004 393.518 991.032 392.902C990.093 392.254 989.073 391.93 987.971 391.93ZM1015.31 411.464C1012.17 411.464 1009.5 410.217 1007.3 407.723C1005.13 405.228 1004.04 402.248 1004.04 398.782C1004.04 395.316 1005.13 392.335 1007.3 389.841C1009.5 387.347 1012.17 386.099 1015.31 386.099C1018.1 386.099 1020.3 387.087 1021.92 389.063V386.634H1029.26V410.93H1021.92V408.5C1020.3 410.476 1018.1 411.464 1015.31 411.464ZM1012.93 403.106C1013.97 404.24 1015.31 404.807 1016.97 404.807C1018.62 404.807 1019.95 404.24 1020.95 403.106C1021.99 401.973 1022.51 400.531 1022.51 398.782C1022.51 397.033 1021.99 395.591 1020.95 394.457C1019.95 393.323 1018.62 392.756 1016.97 392.756C1015.31 392.756 1013.97 393.323 1012.93 394.457C1011.93 395.591 1011.43 397.033 1011.43 398.782C1011.43 400.531 1011.93 401.973 1012.93 403.106ZM1035.1 410.93V386.634H1042.44V389.112C1043.83 387.104 1046.09 386.099 1049.2 386.099C1052.14 386.099 1054.44 387.087 1056.1 389.063C1057.78 391.04 1058.62 393.647 1058.62 396.887V410.93H1051.29V398.15C1051.29 394.554 1049.97 392.756 1047.35 392.756C1045.89 392.756 1044.71 393.291 1043.8 394.36C1042.9 395.429 1042.44 397.016 1042.44 399.122V410.93H1035.1ZM1070.36 399.462V398.49C1070.36 396.417 1071.83 394.311 1074.78 392.173C1076.37 391.007 1077.52 389.987 1078.23 389.112C1078.94 388.237 1079.3 387.152 1079.3 385.856C1079.3 384.172 1078.75 382.763 1077.65 381.629C1076.58 380.495 1075.19 379.928 1073.47 379.928C1071.53 379.928 1069.94 380.528 1068.71 381.726C1067.51 382.892 1066.91 384.447 1066.91 386.391H1062.73C1062.73 383.443 1063.75 380.949 1065.79 378.908C1067.83 376.867 1070.39 375.847 1073.47 375.847C1076.42 375.847 1078.82 376.818 1080.66 378.762C1082.54 380.706 1083.48 383.038 1083.48 385.759C1083.48 387.703 1083.01 389.355 1082.07 390.716C1081.13 392.076 1079.9 393.34 1078.38 394.506C1078.25 394.603 1077.99 394.797 1077.6 395.089C1077.24 395.38 1076.99 395.591 1076.82 395.721C1076.66 395.85 1076.42 396.044 1076.09 396.304C1075.8 396.563 1075.59 396.79 1075.46 396.984C1075.33 397.146 1075.17 397.356 1074.98 397.616C1074.81 397.842 1074.7 398.085 1074.64 398.344C1074.57 398.571 1074.54 398.814 1074.54 399.073V399.462H1070.36ZM1074.93 410.249C1074.25 410.962 1073.41 411.318 1072.4 411.318C1071.4 411.318 1070.54 410.962 1069.83 410.249C1069.15 409.537 1068.81 408.678 1068.81 407.674C1068.81 406.702 1069.16 405.86 1069.87 405.147C1070.59 404.402 1071.43 404.03 1072.4 404.03C1073.37 404.03 1074.22 404.402 1074.93 405.147C1075.64 405.86 1076 406.702 1076 407.674C1076 408.678 1075.64 409.537 1074.93 410.249Z" fill="#3B82F6"/>
<path d="M209.228 545V526.129C229.203 526.129 244.708 506.319 237.038 485.295C234.224 477.57 227.989 471.335 220.208 468.52C199.185 460.905 179.375 476.356 179.375 496.331H160.559C160.559 464.492 191.349 439.661 224.733 450.09C239.301 454.67 250.944 466.258 255.469 480.826C265.898 514.21 241.067 545 209.228 545Z" fill="#0080FF"/>
<path fill-rule="evenodd" clip-rule="evenodd" d="M209.283 526.239H190.466V507.422H209.283V526.239Z" fill="#0080FF"/>
<path fill-rule="evenodd" clip-rule="evenodd" d="M190.466 540.641H176.064V526.239H190.466V540.641Z" fill="#0080FF"/>
<path fill-rule="evenodd" clip-rule="evenodd" d="M176.064 526.239H163.98V514.154H176.064V526.239Z" fill="#0080FF"/>
<path d="M128.775 564.092C126.347 562.382 123.257 561.554 119.725 561.554H112V586.109H119.78C123.312 586.109 126.402 585.227 128.83 583.406C130.154 582.468 131.203 581.143 131.975 579.488C132.693 577.832 133.079 575.846 133.079 573.694C133.079 571.542 132.693 569.611 131.975 567.955C131.203 566.3 130.154 564.975 128.775 564.092ZM116.525 565.693H118.953C121.657 565.693 123.864 566.245 125.574 567.293C127.45 568.452 128.389 570.604 128.389 573.694C128.389 576.894 127.45 579.157 125.574 580.371C123.974 581.419 121.767 581.971 119.008 581.971H116.525V565.693Z" fill="#0080FF"/>
<path d="M138.431 561.223C137.659 561.223 137.052 561.499 136.5 561.996C136.003 562.492 135.728 563.099 135.728 563.872C135.728 564.644 136.003 565.251 136.5 565.803C136.997 566.3 137.659 566.576 138.431 566.576C139.149 566.576 139.811 566.3 140.363 565.803C140.859 565.306 141.135 564.644 141.135 563.872C141.135 563.099 140.859 562.492 140.363 561.996C139.811 561.499 139.149 561.223 138.431 561.223Z" fill="#0080FF"/>
<path d="M140.583 568.783H136.224V586.11H140.583V568.783Z" fill="#0080FF"/>
<path d="M156.42 570.217C155.096 569.059 153.661 568.341 152.061 568.341C149.633 568.341 147.646 569.169 146.101 570.824C144.556 572.425 143.729 574.522 143.729 577.06C143.729 579.488 144.501 581.585 146.046 583.24C147.591 584.84 149.633 585.668 152.006 585.668C153.661 585.668 155.151 585.226 156.31 584.288V584.675C156.31 586.109 155.923 587.213 155.151 587.985C154.378 588.758 153.33 589.144 152.006 589.144C150.019 589.144 148.75 588.372 147.205 586.275L144.225 589.144L144.28 589.255C144.943 590.138 145.881 591.02 147.205 591.848C148.474 592.676 150.13 593.117 152.061 593.117C154.654 593.117 156.751 592.345 158.296 590.744C159.841 589.144 160.614 587.047 160.614 584.454V568.728H156.31V570.217H156.42ZM155.261 580.481C154.489 581.364 153.496 581.75 152.282 581.75C151.012 581.75 150.074 581.309 149.302 580.481C148.529 579.598 148.198 578.494 148.198 577.115C148.198 575.68 148.584 574.577 149.302 573.694C150.019 572.811 151.068 572.425 152.282 572.425C153.551 572.425 154.489 572.866 155.261 573.694C156.034 574.577 156.42 575.735 156.42 577.115C156.42 578.494 156.034 579.598 155.261 580.481Z" fill="#0080FF"/>
<path d="M168.78 568.783H164.421V586.11H168.78V568.783Z" fill="#0080FF"/>
<path d="M166.628 561.223C165.856 561.223 165.249 561.499 164.697 561.996C164.2 562.492 163.925 563.099 163.925 563.872C163.925 564.644 164.2 565.251 164.697 565.803C165.194 566.3 165.856 566.576 166.628 566.576C167.346 566.576 168.008 566.3 168.56 565.803C169.056 565.306 169.332 564.644 169.332 563.872C169.332 563.099 169.056 562.492 168.56 561.996C168.008 561.499 167.401 561.223 166.628 561.223Z" fill="#0080FF"/>
<path d="M178.327 564.093H174.023V568.783H171.539V572.756H174.023V579.929C174.023 582.192 174.464 583.792 175.347 584.73C176.23 585.668 177.83 586.109 180.037 586.109C180.755 586.109 181.472 586.109 182.134 586.054H182.355V582.081L180.865 582.136C179.816 582.136 179.154 581.971 178.823 581.585C178.492 581.198 178.327 580.426 178.327 579.267V572.701H182.41V568.728H178.327V564.093Z" fill="#0080FF"/>
<path d="M207.186 561.499H202.827V586.109H207.186V561.499Z" fill="#0080FF"/>
<path d="M251.22 579.929C250.447 580.812 249.619 581.585 249.012 581.971C248.406 582.357 247.633 582.578 246.75 582.578C245.481 582.578 244.433 582.136 243.605 581.143C242.777 580.205 242.336 578.936 242.336 577.501C242.336 576.011 242.777 574.797 243.605 573.859C244.433 572.921 245.481 572.425 246.75 572.425C248.13 572.425 249.619 573.308 250.889 574.797L253.758 572.038C251.882 569.61 249.509 568.452 246.64 568.452C244.267 568.452 242.17 569.335 240.46 571.045C238.749 572.756 237.921 574.908 237.921 577.501C237.921 580.095 238.804 582.247 240.46 583.957C242.17 585.668 244.212 586.551 246.64 586.551C249.785 586.551 252.323 585.171 254.089 582.688L251.22 579.929Z" fill="#0080FF"/>
<path d="M269.153 571.211C268.546 570.328 267.719 569.666 266.67 569.169C265.622 568.672 264.408 568.396 263.083 568.396C260.655 568.396 258.669 569.279 257.179 571.045C255.744 572.811 254.972 574.963 254.972 577.556C254.972 580.205 255.8 582.357 257.345 584.013C258.945 585.668 261.042 586.496 263.635 586.496C266.56 586.496 268.988 585.282 270.809 582.964L270.919 582.854L268.05 580.095C267.774 580.426 267.387 580.757 267.056 581.088C266.615 581.474 266.229 581.805 265.787 582.026C265.125 582.357 264.408 582.523 263.58 582.523C262.366 582.523 261.373 582.192 260.6 581.474C259.883 580.812 259.442 579.929 259.331 578.826H270.864L270.919 577.225C270.919 576.122 270.753 575.018 270.478 574.025C270.202 573.032 269.76 572.094 269.153 571.211ZM259.607 575.294C259.828 574.466 260.214 573.749 260.766 573.252C261.373 572.645 262.145 572.369 263.028 572.369C264.077 572.369 264.904 572.645 265.456 573.252C265.953 573.804 266.284 574.466 266.339 575.294H259.607Z" fill="#0080FF"/>
<path d="M285.873 570.107C284.549 569.003 282.728 568.396 280.465 568.396C279.031 568.396 277.651 568.728 276.437 569.335C275.278 569.886 274.175 570.88 273.457 572.094L273.512 572.149L276.327 574.797C277.485 572.976 278.755 572.314 280.465 572.314C281.403 572.314 282.121 572.535 282.728 573.032C283.279 573.528 283.61 574.135 283.61 574.908V575.735C282.507 575.404 281.458 575.239 280.41 575.239C278.258 575.239 276.492 575.735 275.168 576.729C273.844 577.722 273.181 579.212 273.181 581.088C273.181 582.743 273.733 584.012 274.892 585.006C276.051 585.944 277.43 586.44 279.086 586.44C280.741 586.44 282.286 585.778 283.721 584.619V586.054H288.025V574.908C287.859 572.866 287.197 571.211 285.873 570.107ZM278.148 579.488C278.644 579.157 279.362 578.991 280.244 578.991C281.293 578.991 282.397 579.212 283.555 579.598V581.309C282.617 582.192 281.348 582.633 279.803 582.633C279.031 582.633 278.479 582.467 278.037 582.136C277.651 581.805 277.43 581.419 277.43 580.867C277.43 580.26 277.651 579.819 278.148 579.488Z" fill="#0080FF"/>
<path d="M304.634 570.438C303.42 569.059 301.71 568.396 299.558 568.396C297.847 568.396 296.412 568.893 295.364 569.886V568.838H291.115V586.109H295.474V576.563C295.474 575.239 295.805 574.19 296.412 573.473C297.019 572.756 297.847 572.369 299.006 572.369C299.999 572.369 300.716 572.701 301.268 573.363C301.82 574.025 302.096 574.963 302.096 576.067V586.109H306.455V576.067C306.455 573.694 305.848 571.762 304.634 570.438Z" fill="#0080FF"/>
<path d="M197.364 570.107C196.039 569.003 194.219 568.396 191.956 568.396C190.521 568.396 189.142 568.728 187.928 569.335C186.769 569.886 185.666 570.88 184.948 572.094L185.003 572.149L187.818 574.797C188.976 572.976 190.246 572.314 191.956 572.314C192.894 572.314 193.612 572.535 194.219 573.032C194.77 573.528 195.101 574.135 195.101 574.908V575.735C193.998 575.404 192.949 575.239 191.901 575.239C189.749 575.239 187.983 575.735 186.659 576.729C185.335 577.722 184.672 579.212 184.672 581.088C184.672 582.743 185.224 584.012 186.383 585.006C187.542 585.944 188.921 586.44 190.577 586.44C192.232 586.44 193.777 585.778 195.212 584.619V586.054H199.516V574.908C199.35 572.866 198.688 571.211 197.364 570.107ZM189.639 579.488C190.135 579.157 190.853 578.991 191.735 578.991C192.784 578.991 193.887 579.212 195.046 579.598V581.309C194.108 582.192 192.839 582.633 191.294 582.633C190.521 582.633 189.97 582.467 189.528 582.136C189.142 581.805 188.921 581.419 188.921 580.867C188.921 580.26 189.142 579.819 189.639 579.488Z" fill="#0080FF"/>
<path d="M223.023 586.496C216.015 586.496 210.331 580.812 210.331 573.804C210.331 566.796 216.015 561.113 223.023 561.113C230.031 561.113 235.714 566.796 235.714 573.804C235.714 580.812 230.031 586.496 223.023 586.496ZM223.023 565.582C218.498 565.582 214.801 569.279 214.801 573.804C214.801 578.329 218.498 582.026 223.023 582.026C227.547 582.026 231.244 578.329 231.244 573.804C231.244 569.279 227.547 565.582 223.023 565.582Z" fill="#0080FF"/>
<path d="M827.576 175.73C823.949 171.466 820.825 167.106 820.19 166.211C820.177 166.192 820.16 166.177 820.139 166.166C820.119 166.155 820.096 166.15 820.073 166.15C820.05 166.15 820.027 166.155 820.007 166.166C819.986 166.177 819.969 166.192 819.955 166.211C819.321 167.106 816.197 171.466 812.57 175.73C781.486 215.179 817.476 241.795 817.476 241.795L817.768 241.997C818.041 246.115 818.719 252.033 818.719 252.033H821.427C821.427 252.033 822.102 246.14 822.377 242.024L822.67 241.795C822.67 241.795 858.66 215.179 827.576 175.73ZM820.073 241.217H820.073C820.073 241.217 818.46 239.846 818.024 239.159L818.02 239.085L819.972 196.136C819.973 196.11 819.984 196.085 820.003 196.067C820.022 196.049 820.047 196.039 820.073 196.039C820.099 196.039 820.124 196.049 820.143 196.067C820.162 196.085 820.173 196.11 820.175 196.136L822.126 239.085L822.122 239.158C821.687 239.845 820.073 241.217 820.073 241.217Z" fill="#00684A"/>
<path d="M887.286 232.423L872.342 196.157L872.3 196.053H860.647V198.482L862.518 198.485C862.798 198.485 863.076 198.541 863.334 198.649C863.593 198.757 863.828 198.914 864.025 199.113C864.222 199.312 864.378 199.548 864.483 199.807C864.588 200.066 864.641 200.343 864.638 200.622L864.294 237.153C864.291 237.703 864.072 238.231 863.683 238.622C863.294 239.014 862.767 239.238 862.214 239.247L860.3 239.27V241.684H871.64V239.272L870.473 239.248C869.919 239.234 869.391 239.005 869.003 238.61C868.614 238.215 868.395 237.685 868.392 237.132V202.718L884.694 241.659C884.808 241.932 885.001 242.165 885.248 242.329C885.495 242.493 885.785 242.58 886.082 242.58C886.379 242.58 886.669 242.493 886.916 242.329C887.163 242.165 887.356 241.932 887.47 241.659L903.4 203.577L903.637 237.124C903.64 237.683 903.421 238.22 903.028 238.62C902.635 239.019 902.1 239.247 901.539 239.256L900.341 239.27V241.684H913.613V239.27L911.796 239.256C911.239 239.246 910.708 239.02 910.316 238.626C909.924 238.232 909.702 237.701 909.698 237.146L909.583 200.622C909.583 200.066 909.802 199.532 910.193 199.135C910.584 198.738 911.116 198.51 911.674 198.499L913.613 198.48V196.053H902.28L887.286 232.423Z" fill="#00684A"/>
<path d="M991.771 238.69C991.58 238.497 991.431 238.268 991.334 238.015C991.236 237.763 991.192 237.493 991.203 237.222V219.322C991.203 215.925 990.192 213.24 988.196 211.339C986.202 209.44 983.464 208.478 980.058 208.478C975.249 208.478 971.471 210.414 968.83 214.233C968.806 214.267 968.773 214.294 968.735 214.31C968.696 214.327 968.653 214.332 968.612 214.324C968.571 214.317 968.532 214.298 968.502 214.27C968.471 214.242 968.449 214.205 968.438 214.165L967.196 209.384H965.12L959.776 212.431L959.776 214.107H961.155C961.716 214.078 962.266 214.259 962.7 214.615C962.898 214.814 963.05 215.053 963.147 215.317C963.244 215.58 963.283 215.861 963.261 216.14V237.222C963.274 237.493 963.231 237.763 963.133 238.016C963.035 238.269 962.885 238.498 962.693 238.69C962.501 238.881 962.27 239.03 962.017 239.128C961.763 239.225 961.492 239.269 961.22 239.256H959.883V241.685H972.171V239.256H970.834C970.562 239.269 970.291 239.225 970.037 239.128C969.784 239.031 969.553 238.881 969.361 238.69C969.169 238.498 969.019 238.269 968.921 238.016C968.823 237.763 968.779 237.493 968.793 237.222V223.269C968.801 221.451 969.195 219.655 969.948 217.998C970.692 216.31 971.873 214.848 973.369 213.762C974.939 212.645 976.83 212.066 978.759 212.112C981.116 212.112 982.874 212.851 983.984 214.31C985.103 215.785 985.671 217.689 985.671 219.969V237.222C985.685 237.493 985.641 237.763 985.543 238.016C985.445 238.269 985.296 238.498 985.103 238.69C984.911 238.881 984.681 239.031 984.427 239.128C984.173 239.226 983.902 239.269 983.631 239.256H982.293V241.685H994.581V239.256H993.244C992.973 239.267 992.702 239.223 992.448 239.126C992.195 239.028 991.965 238.88 991.771 238.69Z" fill="#00684A"/>
<path d="M1104.36 198.79C1100.85 196.955 1096.94 196.014 1092.98 196.053H1076.87V198.482H1078.43C1079.06 198.527 1079.65 198.797 1080.09 199.242C1080.54 199.686 1080.81 200.276 1080.86 200.903V236.834C1080.85 237.148 1080.78 237.457 1080.65 237.742C1080.52 238.028 1080.33 238.284 1080.09 238.495C1079.88 238.729 1079.63 238.917 1079.34 239.048C1079.05 239.179 1078.74 239.249 1078.43 239.255H1076.87V241.684H1092.98C1096.94 241.723 1100.85 240.783 1104.36 238.947C1107.79 237.135 1110.63 234.4 1112.58 231.054C1114.6 227.637 1115.62 223.537 1115.62 218.868C1115.62 214.201 1114.6 210.101 1112.58 206.683C1110.63 203.338 1107.78 200.603 1104.36 198.79ZM1109.18 218.868C1109.18 223.134 1108.41 226.765 1106.89 229.663C1105.38 232.553 1103.36 234.729 1100.88 236.131C1098.39 237.537 1095.58 238.266 1092.72 238.244H1089.47C1089.15 238.238 1088.84 238.168 1088.56 238.037C1088.27 237.906 1088.01 237.718 1087.8 237.484C1087.57 237.273 1087.38 237.017 1087.25 236.731C1087.12 236.446 1087.05 236.137 1087.04 235.823V201.914C1087.04 201.6 1087.12 201.29 1087.25 201.005C1087.38 200.719 1087.57 200.463 1087.8 200.253C1088.01 200.02 1088.27 199.833 1088.56 199.703C1088.84 199.572 1089.15 199.501 1089.47 199.493H1092.72C1095.58 199.471 1098.39 200.2 1100.88 201.607C1103.35 203.008 1105.38 205.184 1106.89 208.074C1108.41 210.973 1109.18 214.604 1109.18 218.868Z" fill="#00684A"/>
<path d="M1153.56 221.283C1152.1 219.592 1149.25 218.152 1145.87 217.384C1150.51 215.088 1152.87 211.823 1152.87 207.673C1152.9 205.519 1152.27 203.407 1151.05 201.625C1149.76 199.814 1148 198.394 1145.95 197.524C1143.55 196.503 1140.95 196.002 1138.34 196.053H1120.27V198.482H1121.7C1122.33 198.527 1122.92 198.797 1123.37 199.242C1123.82 199.686 1124.09 200.276 1124.13 200.903V236.834C1124.13 237.148 1124.05 237.457 1123.92 237.742C1123.79 238.028 1123.6 238.284 1123.37 238.495C1123.16 238.729 1122.9 238.917 1122.62 239.048C1122.33 239.179 1122.02 239.249 1121.7 239.255H1120.14V241.684H1139.76C1142.59 241.715 1145.4 241.205 1148.04 240.184C1150.41 239.29 1152.48 237.759 1154.02 235.762C1155.49 233.821 1156.23 231.447 1156.23 228.705C1156.29 225.988 1155.34 223.345 1153.56 221.283ZM1131.08 237.484C1130.84 237.273 1130.66 237.017 1130.53 236.731C1130.39 236.446 1130.32 236.137 1130.31 235.823V219.683H1139.63C1142.9 219.683 1145.44 220.527 1147.18 222.192C1148.91 223.856 1149.79 226.047 1149.79 228.705C1149.79 230.313 1149.4 231.897 1148.64 233.319C1147.85 234.804 1146.66 236.036 1145.2 236.877C1143.67 237.784 1141.8 238.244 1139.63 238.244H1132.75C1132.43 238.238 1132.12 238.168 1131.83 238.037C1131.55 237.906 1131.29 237.718 1131.08 237.484V237.484ZM1130.31 216.243V201.914C1130.32 201.6 1130.39 201.29 1130.52 201.004C1130.65 200.719 1130.84 200.463 1131.08 200.253C1131.29 200.02 1131.55 199.833 1131.83 199.703C1132.12 199.572 1132.43 199.501 1132.75 199.493H1137.17C1140.36 199.493 1142.72 200.281 1144.2 201.835C1145.68 203.392 1146.43 205.422 1146.43 207.868C1146.43 210.401 1145.73 212.453 1144.36 213.968C1142.99 215.477 1140.9 216.243 1138.15 216.243H1130.31Z" fill="#00684A"/>
<path d="M944.988 210.601C942.341 209.206 939.392 208.477 936.397 208.478C933.403 208.478 930.454 209.207 927.807 210.601C925.244 212.005 923.12 214.087 921.669 216.617C920.184 219.356 919.406 222.421 919.406 225.534C919.406 228.647 920.184 231.712 921.669 234.451C923.119 236.981 925.244 239.064 927.807 240.467C930.454 241.862 933.403 242.591 936.397 242.591C939.392 242.59 942.341 241.861 944.988 240.467C947.551 239.063 949.675 236.981 951.125 234.451C952.611 231.712 953.389 228.647 953.389 225.534C953.389 222.421 952.611 219.356 951.125 216.617C949.675 214.087 947.551 212.005 944.988 210.601ZM947.467 225.534C947.467 229.659 946.453 232.976 944.453 235.393C942.46 237.8 939.749 239.021 936.397 239.021C933.044 239.021 930.334 237.8 928.342 235.393C926.342 232.977 925.327 229.66 925.327 225.534C925.327 221.408 926.342 218.091 928.342 215.675C930.334 213.267 933.044 212.047 936.397 212.047C939.75 212.047 942.46 213.267 944.453 215.675C946.453 218.092 947.468 221.409 947.468 225.534H947.467Z" fill="#00684A"/>
<path d="M1063.34 210.601C1060.7 209.206 1057.75 208.477 1054.75 208.478C1051.76 208.478 1048.81 209.207 1046.16 210.601C1043.6 212.005 1041.48 214.087 1040.03 216.617C1038.54 219.356 1037.76 222.421 1037.76 225.534C1037.76 228.647 1038.54 231.712 1040.03 234.451C1041.48 236.981 1043.6 239.064 1046.16 240.467C1048.81 241.862 1051.76 242.591 1054.75 242.591C1057.75 242.59 1060.7 241.861 1063.34 240.467C1065.91 239.063 1068.03 236.981 1069.48 234.451C1070.97 231.712 1071.74 228.647 1071.74 225.534C1071.74 222.421 1070.97 219.356 1069.48 216.617C1068.03 214.087 1065.91 212.005 1063.34 210.601ZM1065.82 225.534C1065.82 229.659 1064.81 232.976 1062.81 235.393C1060.82 237.8 1058.11 239.021 1054.75 239.021C1051.4 239.021 1048.69 237.8 1046.7 235.393C1044.7 232.977 1043.68 229.66 1043.68 225.534C1043.68 221.408 1044.7 218.091 1046.7 215.675C1048.69 213.267 1051.4 212.047 1054.75 212.047C1058.11 212.047 1060.82 213.267 1062.81 215.675C1064.81 218.092 1065.82 221.409 1065.82 225.534H1065.82Z" fill="#00684A"/>
<path d="M1015.57 208.477C1013.02 208.448 1010.51 209.031 1008.24 210.177C1006.12 211.232 1004.33 212.831 1003.04 214.809C1001.8 216.719 1001.15 218.947 1001.16 221.222C1001.13 223.203 1001.63 225.157 1002.6 226.887C1003.54 228.533 1004.85 229.945 1006.42 231.015L1001.64 237.487C1001.35 237.88 1001.18 238.345 1001.14 238.83C1001.1 239.316 1001.19 239.803 1001.41 240.238C1001.63 240.673 1001.97 241.039 1002.39 241.294C1002.8 241.549 1003.28 241.684 1003.77 241.684H1005.15C1003.87 242.515 1002.79 243.617 1001.99 244.912C1001.15 246.26 1000.7 247.815 1000.68 249.404C1000.68 252.272 1001.96 254.637 1004.47 256.433C1006.96 258.217 1010.45 259.122 1014.83 259.122C1017.77 259.143 1020.69 258.65 1023.46 257.665C1025.95 256.813 1028.19 255.338 1029.94 253.381C1031.58 251.518 1032.46 249.118 1032.42 246.646C1032.42 243.912 1031.41 241.956 1029.05 240.105C1027.03 238.523 1023.89 237.687 1019.96 237.687H1006.54C1006.53 237.687 1006.51 237.683 1006.5 237.675C1006.49 237.667 1006.47 237.656 1006.47 237.642C1006.46 237.629 1006.46 237.613 1006.46 237.598C1006.46 237.582 1006.46 237.568 1006.47 237.555L1009.95 232.864C1010.78 233.245 1011.64 233.535 1012.53 233.728C1013.42 233.895 1014.33 233.975 1015.23 233.966C1017.86 234.008 1020.45 233.425 1022.8 232.267C1024.94 231.214 1026.75 229.616 1028.07 227.636C1029.33 225.732 1029.99 223.501 1029.98 221.222C1029.98 218.743 1028.79 214.23 1025.5 211.929C1025.5 211.906 1025.52 211.907 1025.53 211.909L1032.75 212.714V209.419H1021.2C1019.39 208.793 1017.49 208.475 1015.57 208.477ZM1019.61 229.381H1019.61C1018.37 230.051 1016.98 230.402 1015.57 230.404C1013.37 230.419 1011.25 229.565 1009.68 228.028C1008.01 226.456 1007.16 224.165 1007.16 221.222C1007.16 218.278 1008.01 215.988 1009.68 214.415C1011.25 212.879 1013.37 212.025 1015.57 212.04C1016.98 212.042 1018.37 212.393 1019.61 213.062C1020.92 213.778 1022.01 214.838 1022.75 216.128C1023.57 217.486 1023.98 219.2 1023.98 221.222C1023.98 223.245 1023.57 224.958 1022.75 226.315C1022.01 227.606 1020.92 228.666 1019.61 229.381ZM1010.5 241.684H1019.59C1022.12 241.684 1023.72 242.172 1024.8 243.266C1025.34 243.821 1025.76 244.478 1026.03 245.197C1026.31 245.916 1026.44 246.684 1026.41 247.453C1026.43 248.605 1026.18 249.746 1025.68 250.781C1025.17 251.817 1024.43 252.718 1023.5 253.409C1021.56 254.925 1018.94 255.693 1015.71 255.693C1012.87 255.693 1010.56 255.07 1008.81 253.841C1007.09 252.625 1006.22 250.815 1006.22 248.462C1006.21 247.022 1006.63 245.612 1007.44 244.419C1008.2 243.252 1009.25 242.308 1010.5 241.684Z" fill="#00684A"/>
<path d="M1163.07 241.28C1162.42 240.914 1161.88 240.378 1161.51 239.73C1161.13 239.072 1160.94 238.331 1160.94 237.576C1160.94 236.822 1161.13 236.08 1161.51 235.423C1161.88 234.774 1162.42 234.239 1163.07 233.873C1163.76 233.5 1164.54 233.304 1165.32 233.304C1166.11 233.304 1166.88 233.5 1167.57 233.873C1168.23 234.239 1168.77 234.774 1169.14 235.423C1169.51 236.08 1169.71 236.822 1169.71 237.576C1169.71 238.331 1169.51 239.072 1169.14 239.73C1168.77 240.379 1168.23 240.914 1167.57 241.28C1166.88 241.653 1166.11 241.849 1165.32 241.849C1164.54 241.849 1163.76 241.653 1163.07 241.28ZM1167.19 240.787C1167.74 240.476 1168.19 240.021 1168.49 239.472C1168.8 238.888 1168.96 238.237 1168.96 237.576C1168.96 236.916 1168.8 236.265 1168.49 235.681C1168.19 235.132 1167.74 234.677 1167.19 234.366C1166.62 234.054 1165.98 233.891 1165.32 233.891C1164.67 233.891 1164.03 234.054 1163.46 234.366C1162.91 234.677 1162.46 235.131 1162.15 235.681C1161.84 236.265 1161.68 236.916 1161.68 237.576C1161.68 238.237 1161.84 238.888 1162.15 239.472C1162.46 240.021 1162.91 240.476 1163.46 240.787C1164.03 241.098 1164.67 241.262 1165.32 241.262C1165.98 241.262 1166.62 241.098 1167.19 240.787ZM1163.51 239.619V239.325L1163.57 239.278H1163.77C1163.83 239.275 1163.89 239.248 1163.94 239.202C1163.98 239.157 1164.01 239.096 1164.01 239.032V235.933C1164.01 235.869 1163.98 235.808 1163.94 235.763C1163.89 235.717 1163.83 235.69 1163.77 235.687H1163.57L1163.51 235.64V235.346L1163.57 235.299H1165.31C1165.73 235.277 1166.14 235.393 1166.49 235.628C1166.63 235.737 1166.75 235.88 1166.82 236.044C1166.9 236.207 1166.93 236.387 1166.93 236.567C1166.93 236.718 1166.9 236.869 1166.84 237.009C1166.78 237.149 1166.7 237.276 1166.59 237.383C1166.36 237.616 1166.06 237.763 1165.74 237.799L1166.14 237.917L1166.91 239.137C1166.94 239.178 1166.97 239.213 1167.01 239.237C1167.05 239.262 1167.09 239.276 1167.14 239.278H1167.34L1167.38 239.325V239.619L1167.34 239.666H1166.31L1166.24 239.619L1165.16 237.823H1164.9V239.032C1164.9 239.096 1164.93 239.157 1164.98 239.202C1165.02 239.247 1165.08 239.275 1165.15 239.278H1165.35L1165.41 239.325V239.619L1165.35 239.666H1163.57L1163.51 239.619ZM1165.19 237.436C1165.31 237.443 1165.42 237.427 1165.53 237.389C1165.64 237.35 1165.74 237.29 1165.83 237.213C1165.91 237.125 1165.97 237.023 1166.01 236.912C1166.05 236.801 1166.06 236.684 1166.05 236.567C1166.06 236.335 1165.99 236.107 1165.84 235.927C1165.77 235.848 1165.68 235.785 1165.59 235.743C1165.49 235.702 1165.38 235.682 1165.28 235.687H1165.15C1165.08 235.69 1165.02 235.718 1164.98 235.763C1164.93 235.809 1164.9 235.869 1164.9 235.933V237.436H1165.19Z" fill="#00684A"/>
<g clip-path="url(#clip0_1_1129)">
<path d="M592.783 68.8625V69.6874C592.633 71.3352 591.894 72.8739 590.703 74.0221C589.512 75.1703 587.947 75.8515 586.295 75.9412H579.026V75.7699L585.933 68.8625H592.783Z" fill="#6EE7B7"/>
<path d="M585.933 62.1704V68.8625L579.026 75.7699V68.8625H579.034C579.084 67.1426 579.775 65.5034 580.972 64.2674C582.169 63.0314 583.785 62.288 585.503 62.1835C585.642 62.1744 585.781 62.1704 585.922 62.1704H585.933Z" fill="#34D399"/>
<path d="M599.548 69.0624C599.549 72.6763 598.116 76.1431 595.563 78.7012C593.011 81.2593 589.547 82.6996 585.933 82.7058H585.905C584.113 82.7066 582.338 82.3542 580.683 81.6688C579.027 80.9834 577.523 79.9785 576.256 78.7114C574.989 77.4444 573.984 75.94 573.298 74.2844C572.613 72.6288 572.261 70.8543 572.261 69.0624C572.261 68.9956 572.261 68.9288 572.261 68.8626C572.312 65.2784 573.773 61.8584 576.326 59.3425C578.879 56.8266 582.32 55.4171 585.905 55.4189H585.933C588.341 55.4201 590.705 56.0616 592.783 57.2777V62.1836H586.341C586.206 62.1748 586.07 62.1705 585.933 62.1705H585.922C585.781 62.1705 585.642 62.1744 585.503 62.1836C583.785 62.2881 582.169 63.0314 580.972 64.2674C579.775 65.5034 579.084 67.1426 579.034 68.8626H579.026V75.9412H586.295C587.947 75.8516 589.512 75.1704 590.703 74.0221C591.894 72.8739 592.633 71.3353 592.783 69.6875V62.1836H597.689C598.876 64.2116 599.516 66.513 599.546 68.8626C599.547 68.9288 599.548 68.9956 599.548 69.0624Z" fill="#D1FAE5"/>
<path d="M592.812 62.155H585.905V68.8911H592.812V62.155Z" fill="#A7F3D0"/>
<path d="M602.316 68.8907C602.328 73.0697 600.734 77.0936 597.864 80.1308C596.238 81.8553 594.259 83.2084 592.062 84.098C589.865 84.9875 587.502 85.3924 585.134 85.2851C581.957 85.1357 578.892 84.0666 576.312 82.2076C573.731 80.3486 571.746 77.7799 570.599 74.8138C569.451 71.8477 569.19 68.612 569.847 65.5002C570.504 62.3884 572.051 59.5346 574.3 57.2858C577.189 54.3963 581.052 52.6885 585.134 52.4962C589.215 52.304 593.222 53.6411 596.37 56.2462C596.702 56.0086 597.11 55.9002 597.517 55.9412C597.923 55.9822 598.301 56.1698 598.579 56.469C598.858 56.7682 599.017 57.1585 599.029 57.567C599.04 57.9755 598.903 58.3742 598.642 58.6886C598.381 59.003 598.014 59.2117 597.611 59.2755C597.207 59.3394 596.794 59.2541 596.449 59.0356C596.103 58.8171 595.849 58.4803 595.734 58.0882C595.619 57.6961 595.651 57.2755 595.823 56.905C592.315 53.9936 587.717 52.7503 583.016 53.594C580.91 53.9719 578.91 54.7986 577.152 56.0179C572.062 59.5515 569.566 65.445 570.567 71.5412C570.942 73.8211 571.838 75.9838 573.184 77.8611C576.787 82.8801 582.718 85.2851 588.818 84.1833C590.923 83.8025 592.922 82.9727 594.678 81.7503C599.015 78.7305 601.46 73.9998 601.46 68.8907C601.465 66.7725 601.034 64.6759 600.193 62.7317C600.148 62.6276 600.146 62.5098 600.187 62.4041C600.229 62.2983 600.311 62.2134 600.415 62.168C600.519 62.1226 600.637 62.1204 600.742 62.1619C600.848 62.2033 600.933 62.2851 600.978 62.3892C601.866 64.4414 602.322 66.6546 602.316 68.8907Z" fill="#34D399"/>
</g>
<path d="M614.057 77.9839C613.199 77.9839 612.399 77.7988 611.659 77.4285C610.935 77.0413 610.379 76.5784 609.992 76.0398V77.7314H607.215V58.7947H609.992V66.7987C610.379 66.26 610.935 65.8055 611.659 65.4352C612.399 65.0481 613.199 64.8545 614.057 64.8545C615.774 64.8545 617.213 65.4941 618.375 66.7734C619.553 68.0527 620.142 69.6013 620.142 71.4192C620.142 73.2371 619.553 74.7857 618.375 76.065C617.213 77.3443 615.774 77.9839 614.057 77.9839ZM613.552 75.459C614.646 75.459 615.547 75.0719 616.254 74.2976C616.961 73.5233 617.314 72.5638 617.314 71.4192C617.314 70.2746 616.961 69.3151 616.254 68.5408C615.547 67.7665 614.646 67.3794 613.552 67.3794C612.441 67.3794 611.532 67.7665 610.825 68.5408C610.118 69.3151 609.765 70.2746 609.765 71.4192C609.765 72.5638 610.118 73.5233 610.825 74.2976C611.532 75.0719 612.441 75.459 613.552 75.459ZM628.551 77.9839C626.666 77.9839 625.117 77.3695 623.905 76.1408C622.693 74.8951 622.087 73.3213 622.087 71.4192C622.087 69.5171 622.685 67.9517 623.88 66.7229C625.075 65.4773 626.64 64.8545 628.576 64.8545C630.529 64.8545 632.102 65.5362 633.298 66.8997C634.493 68.2463 635.023 69.98 634.888 72.1009H624.839C624.873 73.0772 625.243 73.8936 625.95 74.5501C626.657 75.2066 627.558 75.5348 628.652 75.5348C630.2 75.5348 631.261 74.9456 631.833 73.7674H634.737C634.35 74.9961 633.609 76.0061 632.515 76.7972C631.421 77.5884 630.099 77.9839 628.551 77.9839ZM628.5 67.1774C627.591 67.1774 626.809 67.4383 626.152 67.9601C625.513 68.4651 625.1 69.1889 624.915 70.1315H631.909C631.707 69.1552 631.295 68.423 630.672 67.9349C630.049 67.4299 629.325 67.1774 628.5 67.1774ZM637.74 77.7314V65.107H640.518V67.3541C640.753 66.6472 641.183 66.0749 641.805 65.6372C642.445 65.1996 643.127 64.9807 643.851 64.9807C644.288 64.9807 644.65 65.0144 644.936 65.0817V67.9349C644.532 67.7834 644.069 67.7076 643.548 67.7076C642.706 67.7076 641.991 68.0527 641.402 68.7428C640.812 69.4161 640.518 70.3588 640.518 71.5707V77.7314H637.74ZM647.332 77.7314V65.107H650.109V67.3541C650.345 66.6472 650.774 66.0749 651.397 65.6372C652.037 65.1996 652.718 64.9807 653.442 64.9807C653.88 64.9807 654.242 65.0144 654.528 65.0817V67.9349C654.124 67.7834 653.661 67.7076 653.139 67.7076C652.298 67.7076 651.582 68.0527 650.993 68.7428C650.404 69.4161 650.109 70.3588 650.109 71.5707V77.7314H647.332ZM660.964 83.0085H657.908L660.61 77.0497L655.182 65.107H658.237L662.1 74.0451L665.988 65.107H669.068L660.964 83.0085ZM671.003 77.7314V58.7947H673.78V77.7314H671.003ZM683.092 77.9839C681.207 77.9839 679.659 77.3695 678.447 76.1408C677.235 74.8951 676.629 73.3213 676.629 71.4192C676.629 69.5171 677.226 67.9517 678.421 66.7229C679.616 65.4773 681.182 64.8545 683.118 64.8545C685.07 64.8545 686.644 65.5362 687.839 66.8997C689.034 68.2463 689.565 69.98 689.43 72.1009H679.381C679.414 73.0772 679.785 73.8936 680.492 74.5501C681.199 75.2066 682.099 75.5348 683.193 75.5348C684.742 75.5348 685.802 74.9456 686.375 73.7674H689.278C688.891 74.9961 688.151 76.0061 687.057 76.7972C685.962 77.5884 684.641 77.9839 683.092 77.9839ZM683.042 67.1774C682.133 67.1774 681.35 67.4383 680.694 67.9601C680.054 68.4651 679.642 69.1889 679.457 70.1315H686.451C686.249 69.1552 685.836 68.423 685.213 67.9349C684.591 67.4299 683.867 67.1774 683.042 67.1774ZM697.458 77.9839C695.741 77.9839 694.294 77.3443 693.115 76.065C691.954 74.7857 691.373 73.2371 691.373 71.4192C691.373 69.6013 691.954 68.0527 693.115 66.7734C694.294 65.4941 695.741 64.8545 697.458 64.8545C698.317 64.8545 699.108 65.0481 699.831 65.4352C700.555 65.8055 701.111 66.26 701.498 66.7987V65.107H704.275V77.7314H701.498V76.0398C701.111 76.5784 700.555 77.0413 699.831 77.4285C699.108 77.7988 698.317 77.9839 697.458 77.9839ZM695.261 74.2976C695.968 75.0719 696.869 75.459 697.963 75.459C699.057 75.459 699.958 75.0719 700.665 74.2976C701.372 73.5233 701.725 72.5638 701.725 71.4192C701.725 70.2746 701.372 69.3151 700.665 68.5408C699.958 67.7665 699.057 67.3794 697.963 67.3794C696.869 67.3794 695.968 67.7665 695.261 68.5408C694.554 69.3151 694.201 70.2746 694.201 71.4192C694.201 72.5638 694.554 73.5233 695.261 74.2976ZM709.225 77.7314V67.5814H706.599V65.107H709.225V62.9861C709.225 61.6226 709.629 60.5622 710.437 59.8047C711.245 59.0304 712.28 58.6433 713.542 58.6433C714.317 58.6433 715.007 58.7443 715.613 58.9462V61.4206C715.225 61.2523 714.729 61.1681 714.123 61.1681C713.382 61.1681 712.844 61.3365 712.507 61.6731C712.17 61.9929 712.002 62.54 712.002 63.3143V65.107H715.613V67.5814H712.002V77.7314H709.225Z" fill="white"/>
</g>
<defs>
<linearGradient id="paint0_linear_1_1129" x1="640" y1="0" x2="640" y2="1151" gradientUnits="userSpaceOnUse">
<stop stop-color="#121927"/>
<stop offset="0.884562" stop-color="#121927" stop-opacity="0"/>
</linearGradient>
<clipPath id="clip0_1_1129">
<rect width="32.8236" height="32.8236" fill="white" transform="translate(569.493 52.479)"/>
</clipPath>
</defs>
</svg>
